<?xml version="1.0" encoding="UTF-8"?>
<svg id="Layer_1" data-name="Layer 1" xmlns="http://www.w3.org/2000/svg" viewBox="0 0 915 915">
  <defs>
    <style>
      .cls-1 {
        fill: #fbd6aa;
      }

      .cls-1, .cls-2, .cls-3, .cls-4, .cls-5, .cls-6, .cls-7, .cls-8, .cls-9, .cls-10, .cls-11, .cls-12, .cls-13, .cls-14, .cls-15, .cls-16, .cls-17, .cls-18, .cls-19, .cls-20, .cls-21, .cls-22, .cls-23, .cls-24, .cls-25, .cls-26, .cls-27, .cls-28, .cls-29, .cls-30, .cls-31, .cls-32, .cls-33, .cls-34, .cls-35, .cls-36, .cls-37, .cls-38, .cls-39, .cls-40, .cls-41, .cls-42, .cls-43, .cls-44, .cls-45, .cls-46, .cls-47, .cls-48, .cls-49, .cls-50, .cls-51, .cls-52, .cls-53, .cls-54, .cls-55, .cls-56, .cls-57, .cls-58, .cls-59, .cls-60, .cls-61, .cls-62, .cls-63, .cls-64, .cls-65, .cls-66, .cls-67, .cls-68, .cls-69, .cls-70, .cls-71, .cls-72, .cls-73, .cls-74, .cls-75, .cls-76, .cls-77, .cls-78, .cls-79, .cls-80, .cls-81, .cls-82, .cls-83, .cls-84, .cls-85, .cls-86 {
        stroke-width: 0px;
      }

      .cls-2 {
        fill: #924546;
      }

      .cls-3 {
        fill: #924840;
      }

      .cls-4 {
        fill: #bb7a4d;
      }

      .cls-5 {
        fill: #784747;
      }

      .cls-6 {
        fill: #f7be95;
      }

      .cls-7 {
        fill: #82474c;
      }

      .cls-8 {
        fill: #974347;
      }

      .cls-9 {
        fill: #914548;
      }

      .cls-10 {
        fill: #7e4144;
      }

      .cls-11 {
        fill: #c3785e;
      }

      .cls-12 {
        fill: #bb7650;
      }

      .cls-13 {
        fill: #864a38;
      }

      .cls-14 {
        fill: #914448;
      }

      .cls-15 {
        fill: #844744;
      }

      .cls-16 {
        fill: #7d4647;
      }

      .cls-17 {
        fill: #f1b785;
      }

      .cls-18 {
        fill: #7c4042;
      }

      .cls-19 {
        fill: #fbd6a9;
      }

      .cls-20 {
        fill: #904549;
      }

      .cls-21 {
        fill: #c47a52;
      }

      .cls-22 {
        fill: #7a3f44;
      }

      .cls-23 {
        fill: #d29674;
      }

      .cls-24 {
        fill: #934447;
      }

      .cls-25 {
        fill: #7f484e;
      }

      .cls-26 {
        fill: #fcd5aa;
      }

      .cls-27 {
        fill: #ffeacc;
      }

      .cls-28 {
        fill: #b87751;
      }

      .cls-29 {
        fill: #c7795d;
      }

      .cls-30 {
        fill: #ebbb86;
      }

      .cls-31 {
        fill: none;
      }

      .cls-32 {
        fill: #edb987;
      }

      .cls-33 {
        fill: #814032;
      }

      .cls-34 {
        fill: #844e4a;
      }

      .cls-35 {
        fill: #81484a;
      }

      .cls-36 {
        fill: #c1794e;
      }

      .cls-37 {
        fill: #93453e;
      }

      .cls-38 {
        fill: #763e3c;
      }

      .cls-39 {
        fill: #7d4047;
      }

      .cls-40 {
        fill: #f8c19b;
      }

      .cls-41 {
        fill: #fcd2b0;
      }

      .cls-42 {
        fill: #8f4547;
      }

      .cls-43 {
        fill: #934446;
      }

      .cls-44 {
        fill: #814245;
      }

      .cls-45 {
        fill: #7d4242;
      }

      .cls-46 {
        fill: #804b4e;
      }

      .cls-47 {
        fill: #c57952;
      }

      .cls-48 {
        fill: #eabc84;
      }

      .cls-49 {
        fill: #924447;
      }

      .cls-50 {
        fill: #c27a4f;
      }

      .cls-51 {
        fill: #94473b;
      }

      .cls-52 {
        fill: #834a49;
      }

      .cls-53 {
        fill: #be7d4f;
      }

      .cls-54 {
        fill: #eabc85;
      }

      .cls-55 {
        fill: #904135;
      }

      .cls-56 {
        fill: #c47a51;
      }

      .cls-57 {
        fill: #894d4d;
      }

      .cls-58 {
        fill: #804a4a;
      }

      .cls-59 {
        fill: #753b3c;
      }

      .cls-60 {
        fill: #83494c;
      }

      .cls-61 {
        fill: #c37a50;
      }

      .cls-62 {
        fill: #954839;
      }

      .cls-63 {
        fill: #8a4438;
      }

      .cls-64 {
        fill: #924446;
      }

      .cls-65 {
        fill: #924547;
      }

      .cls-66 {
        fill: #b67b4e;
      }

      .cls-67 {
        fill: #814038;
      }

      .cls-68 {
        fill: #c57a52;
      }

      .cls-69 {
        fill: #784140;
      }

      .cls-70 {
        fill: #914346;
      }

      .cls-71 {
        fill: #cc9074;
      }

      .cls-72 {
        fill: #934449;
      }

      .cls-73 {
        fill: #773941;
      }

      .cls-74 {
        fill: #fcd6a9;
      }

      .cls-75 {
        fill: #833a3c;
      }

      .cls-76 {
        fill: #e8bd87;
      }

      .cls-77 {
        fill: #f9ccb0;
      }

      .cls-78 {
        fill: #86452e;
      }

      .cls-79 {
        fill: #c77d57;
      }

      .cls-80 {
        fill: #f1b691;
      }

      .cls-81 {
        fill: #924345;
      }

      .cls-82 {
        fill: #c37a51;
      }

      .cls-83 {
        fill: #8d453e;
      }

      .cls-84 {
        fill: #eabb84;
      }

      .cls-85 {
        fill: #82484d;
      }

      .cls-86 {
        fill: #814230;
      }
    </style>
  </defs>
  <circle class="cls-27" cx="457.5" cy="457.5" r="457.5"/>
  <g>
    <path class="cls-31" d="M588.54,342.65s-.01.01-.02.02c-.01,0-.03.02-.04.03,0,0-.02.01-.03.02.03-.02.06-.04.09-.07,0,0,0,0,0,0Z"/>
    <path class="cls-31" d="M648.08,270.46c.02-.06.05-.11.07-.16-.08,0-.15,0-.23.01.05.05.11.1.16.15Z"/>
    <path class="cls-31" d="M580.86,495.35c-.04.4-.06.8-.1,1.2.13-.46.28-.93.43-1.39-.11.07-.23.11-.34.19Z"/>
    <path class="cls-31" d="M234.26,646.88s.01.01.02.02c0,0,.01-.01.02-.02h-.03Z"/>
    <path class="cls-31" d="M235.39,761.72s0,0,0-.01c-.03,0-.06.01-.09.02.03,0,.06,0,.09-.01h0Z"/>
    <path class="cls-31" d="M270.66,453.56c-.06-.09-.13-.18-.19-.27,0,.18,0,.35,0,.53.07-.08.13-.17.19-.26Z"/>
    <path class="cls-31" d="M580.21,521.31c.26-1.55.39-3.11.44-4.68-.03-.28-.07-.55-.1-.83-.05,1.84-.14,3.68-.34,5.51Z"/>
    <path class="cls-31" d="M625.59,261.24c.02-.05.04-.11.06-.16-.17,0-.34,0-.51,0,.15.06.3.1.45.16Z"/>
    <path class="cls-31" d="M622.04,298.75s0,0,0,0c0-.03,0-.07,0-.1-.03.01-.05.01-.08.02.03.03.05.05.08.08,0,0,0,0,0,0Z"/>
    <path class="cls-31" d="M428.05,223.18l-.44.19s-.47-.1-.47-.1c.3.26.59.52.89.77,0-.29,0-.57.01-.86Z"/>
    <path class="cls-31" d="M235.98,452.38s-.02,0-.03-.01c0,.04,0,.08,0,.12.01-.04.02-.07.03-.11Z"/>
    <path class="cls-31" d="M230.83,726.99c.51,2.94.89,5.92,1.14,8.92,0-3.77.01-7.54.15-11.31,0-.16.01-.33.02-.49-1.17-.02-2.34-.04-3.51-.06,1.1.47,1.96,1.57,2.2,2.93Z"/>
    <path class="cls-31" d="M655.14,268.97c-.54.06-1.07.12-1.6.18.25.02.51.03.76.05.29-.05.57-.12.84-.23Z"/>
    <path class="cls-31" d="M658.28,454.18c.09-.05.17-.12.27-.15-.06,0-.12-.01-.18-.02-.03.02-.06.05-.09.07,0,.03,0,.06,0,.09Z"/>
    <path class="cls-31" d="M622.06,223.41s.06-.05.1-.08c0,0,0,0,0,0l-.16-.18c.02.09.04.17.06.26Z"/>
    <path class="cls-31" d="M350.55,337.89s-.06-.06-.09-.1c0,.04,0,.08,0,.11.03,0,.06-.01.09-.02Z"/>
    <path class="cls-31" d="M383.33,462.65c0,.05-.02.09-.03.14.17,0,.33-.01.5-.01-.16-.05-.31-.08-.47-.13Z"/>
    <path class="cls-31" d="M622.14,223.15c-.05-.09-.08-.18-.12-.27,0,.09-.02.18-.03.27.05,0,.1,0,.14,0Z"/>
    <path class="cls-31" d="M354.56,463.39c-.04-.25-.11-.5-.16-.74-.02.35.02.72.16.74Z"/>
    <path class="cls-31" d="M503.91,260.95c.14,0,.28,0,.42,0,0,0-.19-.25-.19-.25.04-.03.07-.05.11-.08-.04-.02-.07-.03-.11-.05,0,.04,0,.09,0,.13-.08.08-.15.17-.23.25Z"/>
    <path class="cls-31" d="M466.7,417.8c0,.11,0,.22,0,.33.06-.03.13-.08.18-.11-.06-.07-.12-.15-.18-.22,0,0,0,0,0,0Z"/>
    <path class="cls-31" d="M350.37,337.7s0,.05,0,.08c.02,0,.04,0,.07,0-.02-.03-.05-.05-.07-.08Z"/>
    <path class="cls-31" d="M581.35,527.93s0,0,0,0c.09-.1.18-.19.28-.29-.27-.01-.51.02-.72.1.14.06.29.12.44.19h0Z"/>
    <path class="cls-31" d="M583.08,530.38c-.58.17-1.17.35-1.75.52,0,.01,0,.02,0,.04-.01,0-.02,0-.03,0-.01.06-.02.12-.03.18.09-.08.19-.15.28-.23.44.05.88.1,1.31.15,0,0,.22-.66.22-.67,0,0,0,0,0,0Z"/>
    <path class="cls-31" d="M581.35,495.08v.62c.04-.17.09-.34.13-.51-.01-.05-.03-.11-.04-.16-.03.02-.06.03-.09.05Z"/>
    <path class="cls-21" d="M311.11,376.83h0c-.27,12.14,1.56,24.28.09,36.43,0,0,0,0,0,0h0c.05.5.04,1-.02,1.5h0c14.15.12,28.29.24,42.44.35h0s0,0,0,0c22.57-.09,45.15-.19,67.72-.28,7.78-9.99,3.54-21.62,4.35-32.55.19-2.5-2.19-2.63-4.26-3.11-4.24-.98-8.47-.6-12.68-.54-18.43.26-36.89-.96-55.28.84-2.97.29-2.02-.9-1.55-2.32l-1.56-1.61c-12.47,2.27-24.93,2.75-37.37-.2,0,0,0,0,0-.01,0,0,0,0,0,.01.05-11.87.1-23.74.15-35.62-.07-.45-.19-.88-.37-1.29,0,0,0,0,0,0-.53-.16-1.06-.32-1.59-.48,0,0,0,0,0,0-.19,10.02,1.2,20.03.09,30.05,0,0,0,0,0,0,.7,2.96.38,5.89-.15,8.83Z"/>
    <path class="cls-11" d="M389.7,724.11c0-.23,0-.46-.01-.7-.01-.82-.02-1.63-.04-2.45h0c-.1-1-.19-2.01-.29-3.01h0s0,0,0,0c-3.03-8.9.15-18.25-2.67-27.24,0,8.68-.24,17.36.14,26.02.13,2.91.19,3.99-3.16,3.67-2.94-.28-5.97.52-8.96.53-38.95.04-77.91.04-116.86.02-7.82,0-15.69.58-23.38-1.49,0,0,0,0,0,0h0c-.09,1.56-.18,3.12-.27,4.68-.68-.01-1.37-.02-2.05-.04,0,.16-.02.33-.02.49-.14,3.77-.16,7.54-.15,11.31.42,5.13.45,10.31.07,15.47,0,.05-.02.09-.03.14,0,.82,0,1.63,0,2.45-.03,2.75-.15,5.59,2.23,7.66l.03.06c.22.06.42.08.61.08.14,0,.28-.03.42-.06.03,0,.06-.01.09-.02.17-12.07.34-24.13.51-36.2,1.91-2.47,4.64-1.48,7.01-1.48,46.02-.06,92.05-.06,138.07,0,2.36,0,5.1-1.04,7,1.45h0s0,0,0,0c0,.61,0,1.23,0,1.84,0,3.67,0,7.35,0,11.03,0,5.75.03,11.51.19,17.25.13,4.47-1.13,6.16-5.89,6.13-.32,0-.64,0-.97,0-.67.07-1.4.1-2.21.09-34.7-.27-69.4-.14-104.1-.14l-35.95-.75c-.16.22-.34.43-.57.61-.93.17-1.86.34-2.79.51h0c5.43,2.09,11.13.03,16.63,1.11,0,0,0,0,0,0,4.02.05,8.04.1,12.05.14h0c34.42-.09,68.84-.17,103.26-.27,7.29-.02,14.57-.11,21.86-.17.1-6.8.19-13.6.29-20.4,0-.12,0-.25,0-.37-.03-5.99-.07-11.98-.1-17.97h0Z"/>
    <path class="cls-11" d="M237.95,728.07c.08.15.15.3.23.45.21,0,.41,0,.62,0-.31-.12-.59-.28-.85-.45Z"/>
    <path class="cls-71" d="M428.05,223.18c22.83,0,45.66-.06,68.48.05,2.55.01,5.57-1.32,7.65,1.5h0c-.02,11.95-.03,23.89-.05,35.84.04.02.07.03.11.05.56-.4,1.13-.8,1.69-1.2,0,0,0,0,0,0,.01-11.09.02-22.18.03-33.28,0,0,0,0,0,0,.86-4.8,4.69-2.8,7.22-2.82,22.72-.18,45.44-.14,68.16-.16,0-.45-.03-.9-.07-1.35,0,0,0,0,0,0h0c-24.09-.1-48.18-.2-72.27-.31,0,0,0,0,0,0,0,0,0,0,0,0-2.26.38-3.33-.51-3.03-2.85-.07-11.2-.13-22.4-.2-33.59,0-.33,0-.65,0-.98,0,0,0,0,0,0-.46-.12-.92-.11-1.39,0-.08,9.05-.16,18.09-.24,27.14q.53,10.55-9.95,10.55c-21.77-.03-43.54-.09-65.31-.13h0c-.59.54-1.17,1.07-1.76,1.61,0,0,.47.1.47.1l.44-.19Z"/>
    <path class="cls-15" d="M235.94,452.37s.02,0,.03.01c2.77-8.5,1.1-17.25,1.09-25.86-.01-6.73,2.7-8.97,8.93-8.77,6.26.2,12.54.06,18.81.05,3.6,0,6.89,1.91,5.28,5.26-4.45,9.28-.65,18.03.32,26.99.12,1.07.07,2.15.06,3.23.06.09.13.18.19.27,3.06-3.89,1.14-8.43,1.34-12.64.4-8.21.23-16.45.3-24.68-.28-.36-.37-.76-.27-1.2-.53-.1-1.06-.19-1.58-.29-11.07,0-22.13.01-33.2.02-.64.53-1.28,1.07-1.92,1.6.2,12,.41,24,.62,35.99Z"/>
    <path class="cls-15" d="M235.32,416.38s0,.02,0,.02c0,0,0-.02,0-.03,0,0,0,0,0,0Z"/>
    <path class="cls-7" d="M350.44,337.77s.01,0,.02,0c0,0,0,.02,0,.02.03.03.06.06.09.1.5-.1.99-.2,1.49-.29,0,0,0,0,0,0,.48-.42.96-.84,1.44-1.27,3.01-8.48,1.37-17.26,1.28-25.87-.07-6.95,2.24-9.34,9.1-8.91,8.15.51,16.39-.42,24.44,1.68,0,0,0,0,0,0,0,0,0,0,0,0,.45-1.02.89-2.04,1.34-3.07-.74,0-1.48-.01-2.22-.02-9.37-.09-18.74-.18-28.11-.28,0,0,0,0,0,0h0c-2.96.11-5.91.21-8.87.32,0,0,0,0,0,0-.08,11.03-.17,22.06-.25,33.09,0,.52,0,1.04,0,1.55.05.95.11,1.9.16,2.86.02.03.05.05.07.08Z"/>
    <path class="cls-71" d="M659.46,220.11c-.24.03-.48.08-.71.12-.15.03-.3.04-.45.08,0,0,0,0,0,0-10.93,3.08-22.07.73-33.1,1.22-1.02.13-2.04.25-3.06.38,0,0,0,0,0,0-.05.32-.08.64-.1.96.04.09.07.18.12.27,9.75.02,19.5,0,29.25.11,2.41.03,5.1-.83,7.07,1.47h0c.39.01.77.03,1.15.06,5.05-3.36,10.67-1.19,16-1.49,6.92-.4,13.87-.16,20.81-.16.32,0,.63,0,.95,0,0,0,0,0,0,0,.1-.45.09-.9-.04-1.34,0,0,0,0,0,0-12.01-.08-24.03-.16-36.04-.25,0,0,0,0,0,0-.61-.48-1.22-.96-1.83-1.44,0,0,0,0,0,0Z"/>
    <path class="cls-19" d="M421.34,376.79s.01,0,.02,0c4.69-1.15,6.53-3.72,6.21-8.93-.54-8.96-.09-17.99-.06-26.98,0,0,0,0,0,0-1.07-1.15-2.3-1.53-3.59-1.63-.2,0-.39-.02-.59-.02-1.2-.02-2.42.14-3.59.14-18.43-.08-36.87-.01-55.3-.1-2.65-.01-5.51.87-7.92-1.11-1.07-.13-2.14-.27-3.21-.4-.43-.05-.86-.11-1.28-.16-.5.1-.99.2-1.49.29-.03,0-.06.01-.09.02-.03,12.31-.07,24.63-.1,36.95,0,.23,0,.46,0,.68l1.56,1.61c22.6-.12,45.2-.23,67.8-.35.54,0,1.08,0,1.62,0Z"/>
    <path class="cls-42" d="M350.46,337.91s0-.08,0-.11c0,0,0-.02,0-.02,0,0-.01,0-.02,0-.02,0-.04,0-.07,0-12.28.21-24.55.43-36.83.64-.26,0-.52,0-.79.01,0,0,0,0,0,0,.18.41.3.85.37,1.29,1.7,11.88,1.92,23.74-.15,35.6,0,0,0,0,0,.01,12.44,2.96,24.9,2.47,37.37.2,0-.23,0-.46,0-.68.03-12.31.07-24.63.1-36.95Z"/>
    <path class="cls-2" d="M296.93,379.28c-4.74.51-9.51.71-14.27.68-3.88-.03-5.84.95-6.89,3.23-.54,1.18-.84,2.71-1.02,4.64-.39,4.25.16,8.32.93,12.34.79,4.17,1.81,8.29,2.25,12.5.02.2.05.39.06.59,10.22,0,20.45-.01,30.67-.02.59,0,1.17,0,1.76,0,.26,0,.51,0,.77,0,0,0,0,0,0,0,1.47-12.15-.36-24.28-.09-36.43h0c-.44.09-.88.17-1.32.26-.05.01-.11.02-.16.03h0c-4.2,1.02-8.44,1.71-12.7,2.17Z"/>
    <path class="cls-28" d="M422.81,414.95c.47.04.94.08,1.41.12,0,0,0,0,0,0,0,0,0,0,0,0,1.18.35,2.36.7,3.53,1.05,0,0,0,0,0,0,.1-.03.18-.09.27-.13.32-.14.61-.33.84-.61,0,0,0,0,0,0h0c-2.35-2.63-1.38-5.71-1.31-8.67,0-.33,0-.65-.01-.97,0,0,0,0,0,0-.07-7.39-.42-14.8-.12-22.18.01-.3,0-.56,0-.84-.02-2.91-.81-4.8-2.89-5.55-.84-.31-1.88-.45-3.18-.38,0,0,.01,0,.02,0,0,0-.01,0-.02,0-.54,0-1.08,0-1.62,0-22.6.12-45.2.23-67.8.35-.47,1.42-1.42,2.61,1.55,2.32,18.39-1.81,36.85-.58,55.28-.84,4.22-.06,8.45-.44,12.68.54,2.07.48,4.44.61,4.26,3.11-.81,10.93,3.43,22.56-4.35,32.55.29.03.58.05.87.08.2.02.39.03.59.05Z"/>
    <path class="cls-30" d="M419.89,416.29h.16c1.51,0,3.01,0,4.17-1.21,0,0,0,0,0,0-.47-.04-.94-.08-1.41-.12-.2-.02-.39-.03-.59-.05-.29-.03-.58-.05-.87-.08-22.57.1-45.14.19-67.72.28,0,0,0,0,0,0,1.17,1.19,2.68,1.17,4.18,1.17,20.69,0,41.38,0,62.08,0Z"/>
    <path class="cls-67" d="M308.67,413.26c-10.22,0-20.45.01-30.67.02-.01,0-.03.01-.04.02-.94.42-1.88.85-2.82,1.27h0c11.85.06,23.7.13,35.56.19.16,0,.32,0,.49,0h0c.06-.5.07-1,.02-1.5h0c-.26,0-.51,0-.77,0-.59,0-1.17,0-1.76,0Z"/>
    <path class="cls-75" d="M313.14,339.72c-.05,11.87-.1,23.74-.15,35.62,0,0,0,0,0-.01,2.07-11.86,1.85-23.73.15-35.6Z"/>
    <path class="cls-68" d="M658.28,454.18c-.05,12-.09,23.99-.14,35.99,0,0,0,0,0,0h0c-7.1,3.19-14.56.85-21.84,1.41-4.19.32-8.45-.08-12.67-.15,0,0,0,0,0,0-3.53.02-3.02-2.59-3.03-4.77-.03-8.98.19-17.98-.09-26.95-.15-4.84,2.02-5.9,6.3-5.78,8.98.25,17.98.14,26.96.18,0,0,0,0,0,0,1.5-.04,3-.08,4.49-.12h0c3.05-10.08,1.35-20.42,1.22-30.59-.09-7.08,2.13-9.08,8.95-8.69,9.72.56,19.49.19,29.24.22.01-.54.02-1.08.03-1.63,0,0,0,0,0,0h0c-.02-25.02-.05-50.03-.08-75.05-.38.03-.69-.01-.89-.15,0-.83.01-1.96.03-3.29.01-1.21.03-2.6.05-4.16.23-18.21.9-57.72.94-66.62-.02-.79-.05-1.57-.07-2.36,0-.29-.02-.57-.03-.86-.3,0-.59,0-.89,0-12.36.02-24.73.04-37.09.05,0,0,0,0,0,0-.5,0-1-.03-1.49-.07h0c-10.85.09-21.69.18-32.53.27-.02.05-.04.11-.06.16,7.36,2.7,15.01.5,22.49,1.19,3.42.32,7.07-.77,10.3,1.93-9.59.87-18.78,4.05-28.35,2.55-2.59-.41-6.16.23-7.5-2.16-.25-.44-.41-1-.49-1.67-.06-.56-.06-1.2.02-1.95-.37-.03-.73-.07-1.1-.1-.13-.01-.25-.02-.38-.04-.03,12.06-.07,24.11-.1,36.17h0s0,0,0,0c.22.22.43.45.65.67.27.28.55.56.82.85.03,0,.05-.01.08-.02,0-.86,0-1.72,0-2.59.03-7.4.1-14.79-.02-22.19-.03-1.61.21-2.83.78-3.72.76-1.18,2.12-1.75,4.41-1.72,8.76.13,17.53.1,26.34.71.53-.06,1.06-.12,1.6-.18-.27.11-.55.18-.84.23,1.77.13,3.54.28,5.31.47-3.46.19-6.92.38-11.46.62-.02.05-.05.1-.07.16,5.87,5.52,10.92,8.28,17.23,2.44,1.15-1.06,2.63-1.82,4.02-.59,1.43,1.25.81,2.82-.21,4-1.6,1.86-2.25,4.42-4.86,5.55-11.42,4.95-11.85,6.05-7.47,16.94,3.02,1.15,2.85,3.74,2.85,6.27,0,9.01-.17,18.03.1,27.03.14,4.69-1.72,6-6.18,5.89-10.8-.27-21.62-.14-32.42-.16-.19,0-.37,0-.56,0,0,.02,0,.05,0,.07,0,0,0,0,0,0h0s-.05,0-.07,0c.03,11.02-.11,22.04.17,33.05.11,4.54-1.36,6.27-6.01,6.11-8.53-.28-17.11.39-25.6-.24-6.31-.47-7.78,2.24-7.64,7.66.18,7.02-.52,14.11.19,21.07.8,7.86-2.13,9.69-9.64,9.56-9.35-.17-18.89-1.92-28.14,1.18h36.26c-5.86,6.13-12.84,4.4-19.34,4.49-12.3.17-12.6.42-12.67,12.53-.03,4.59.47,9.33-.97,13.62-.41,1.22-.98,2.39-1.76,3.52-.48.69-1.03,1.37-1.68,2.02,0,0,0,0,0,0,0-.96,0-1.92.01-2.89l-5.73,4.45c-.7-.04-1.4-.09-2.08-.09-8.73.09-17.46.08-26.19,0-3.17-.03-5.4.6-5.23,4.46.33,7.21-.45,14.49-.04,21.69l-15.07,11.7c-7.09-.48-14.18-.02-21.28,1.37,0,0,0,0,0,0,6.5,0,13,.01,19.5.02,4.07,0,8.15,0,12.22.01.02,0,.04,0,.06,0-.27.58-.6,1.03-.95,1.41-1.54,1.66-3.8,1.65-6.09,1.64-3.1-.02-6.2.09-9.3.1-2.18.01-4.35-.02-6.51-.2-4.43-.38-6.75.95-7.91,3.6-.61,1.38-.91,3.1-1.03,5.14-.07,1.15-.06,2.32-.01,3.48.21,5.53,1.23,11.11-1.28,16.45,0,0,0,0,0,0,.29-5.06-.14-10.14-.31-15.22l-27.33,21.22c-2.93-.03-5.87-.06-8.8-.09,0,0,0,0,0,0,0,0,0,0,0,0-.91.19-1.53.51-1.96.93-1.33,1.3-.78,3.5-1.04,5.31,0,0,0,0,0,0,0,1,.02,2,.02,3,.04,5.94.09,11.87.14,17.81,0,1.1.02,2.19.02,3.29.83,4.59,3.64,10.01-4.49,10.91-8.46-.6-16.97.28-25.4-.52-4.56-.43-5.76,1.44-5.71,5.46.08,6.49.01,12.99.02,19.48,0,3.03,0,6.03-2.27,8.44-.73,4.13-4.01,3.03-6.57,3.06-8.79.09-17.59.15-26.38-.02-4.49-.09-6.38,1.69-6.28,6.22.17,8.53-.23,17.09.15,25.61.24,5.39-1.12,7.51-7.03,7.46-36.41-.3-72.83-.22-109.25-.27,0,0-.01.01-.02.02,2.36,2.84,5.61,1.6,8.44,1.6,33.4.09,66.8.02,100.2.18,1.78,0,5.14-2.29,5.52,2.34.41,5.02-2.8,4.78-6.22,5.14-29.53,3.08-59.15.72-88.72,1.45-3.51.09-7.08-.33-10.54.11-4.1.52-6.99.21-6.3-4.97.29-2.16-1.02-2.56-2.67-2.59-1.15-.02-2.05.47-1.45,1.75,1.95,4.17-.97,3.98-3.58,4.11.58-2.61-2.95-5.32-1.99-6.33,5.26-5.5,2.06-11.95,2.59-17.87.57-6.39.13-12.86.13-20.14-3.03,3.68.67,8.8-2.99,10.18-3.14,1.19-4.63-3.93-7.72-5.05-6.43-2.34-12.61-2.65-18.31,1.96-2.17-8.92-1.83-9.39,7.01-9.42,8.79-.02,17.58,0,26.37,0h0s0,0,0,0c.04-.49.09-.98.13-1.48-11.56-.04-23.12-.07-34.68-.11h0c-1.03.09-2.06.18-3.09.28h0c-.05,25.1-.11,50.19-.16,75.29,0,0,0,0,0,0-.34.68-.83,1-1.37,1.17-.97.3-2.14.1-3.05.55,0,0,0,0,0,0,1.51.43,3.03.85,4.54,1.28h0c.25-.02.51-.03.76-.05.79-.05,1.58-.09,2.37-.14h0c10.04-.27,20.08-.67,30.12-.76,3.92-.03,4.71,2.77,4.69,6.23-.07,8.93.06,17.87.13,26.8,0,.35,0,.7,0,1.06,0,0,0,0,0,0,7.69,2.07,15.56,1.49,23.38,1.49,38.95.01,77.91.02,116.86-.02,2.99,0,6.02-.8,8.96-.53,3.35.31,3.29-.77,3.16-3.67-.38-8.66-.14-17.35-.14-26.02,2.82,9-.36,18.34,2.67,27.24,0,0,0,0,0,0,.08-8.95.4-17.91.13-26.85,0-.05,0-.08,0-.13-.11-4.9,1.81-6.34,6.53-6.18,9.94.33,19.9.23,29.85.32h0s0,0,0,0c3.31-6.13.94-12.71,1.47-19.06.37-4.47.16-9,.03-13.5-.1-3.56.81-5.64,4.98-5.56,9.5.18,19.01.1,28.52.02,2.34-.02,3.7.72,4.13,2.33.16.61.2,1.34.1,2.22h0c.38.46.77.91,1.15,1.36,0,0,0,0,0,0,1.01-1.92-.45-4.57,1.81-6.12,0,0,0,0,0,0,.02-.31-.01-.63-.05-.94,0-.07,0-.14-.01-.21,0,0,0,0,0,0-3.01-11.26-.99-22.71-1.15-34.07-.05-3.7,3.45-3.66,6.25-3.66,10.18,0,20.36.02,30.54.04.29,0,.58,0,.87,0,.27-.44.53-.88.8-1.32.09-.15.18-.3.27-.45,0,0,0,0,0,0-1.93-10.39-.85-20.88-1.13-31.32-.08-2.93.82-4.82,4.18-4.8,11.43.06,22.87.07,34.3.09.28,0,.57,0,.85,0,0,0,0,0,0,0,4.96.05,9.93.1,14.89.15h0c6.99-.13,13.99-.26,20.98-.39.89-.02,1.78-.03,2.68-.05h0c.17-12.94.35-25.88.52-38.82h0,0c-.44-.05-.88-.1-1.31-.15-.09.08-.19.15-.28.23-.09.49-.17.98-.26,1.47,0,0,0,0,0,.01,0,0,0-.01,0-.02.07,10.3.02,20.6.29,30.89.08,3.22-.88,4.68-3.33,5.08-.56.09-1.18.14-1.91.13-4.22-.1-8.45-.14-12.67-.16-1.55,0-3.09-.02-4.64-.02-4.15-.01-8.29-.02-12.44-.04-.39,0-.77,0-1.16,0,0,0,0,0,0,0,0,0,0,0,0,0-3.6-10.95-.65-22.21-1.55-33.29-.18-2.23.54-3.96,3.04-4.41,0,0,0,0,0,0,.49-.8.92-2.25,1.48-2.31,9.06-.87,18.14-.93,27.2.03.56.06.98,1.52,1.46,2.32.51,0,1.01,0,1.52,0,.03-1.92-.39-4.31,2.61-3.08.21-.08.45-.11.72-.1.4-.41.79-.83,1.19-1.24h0c-.98-10.38,1.42-20.91-1.34-31.21-.05.17-.09.34-.13.51v27.17c-.17-2.08-.43-4.16-.69-6.25-.05,1.57-.18,3.13-.44,4.68.2-1.83.29-3.67.34-5.51-.81-6.43-1.56-12.86.21-19.24.03-.4.05-.8.1-1.2.11-.08.23-.12.34-.19.05-.16.1-.32.15-.48v-.03h.01c.97-2.93,3.73-2.63,5.64-2.34,10.65,1.63,21.35.27,32.01.87h0c.58.04,1.17.08,1.75.12h0c11.01-.12,22.02-.43,33.03-.25,4.51.07,6.15-1.18,6.03-5.88-.29-11-.05-22.02-.03-33.03,0,0,0,0,0,0-.41-.04-.82-.08-1.23-.12-.1.03-.18.1-.27.15ZM496.97,514.75c-2.95,2.99-5.9,5.99-8.94,8.89-1.12,1.07-2.74,1.71-3.89.28-.65-.81-.79-2.31-.62-3.42.36-2.36,9.08-10.09,11.86-10.26.36.21,1.35.52,1.92,1.2.92,1.08.63,2.34-.34,3.32ZM499.85,493.2s0,0,0,0c0,0,0,0,0-.01h0Z"/>
    <path class="cls-68" d="M581.44,495.03c-.03-.12-.06-.23-.09-.35,0,0,0,0,0,.01v.39s.06-.04.09-.05Z"/>
    <path class="cls-68" d="M658.28,454.08s.06-.05.09-.07c-.03,0-.06,0-.09,0h-.01s.01,0,.01,0v.08Z"/>
    <path class="cls-68" d="M658.15,259.32c0-.09,0-.19,0-.28-.03,0-.07.02-.1.03.03.08.06.17.09.25Z"/>
    <path class="cls-70" d="M697.68,415.12h0s0-.08,0-.13c0-.02,0-.04,0-.07-9.75-.03-19.52.34-29.24-.22-6.82-.39-9.03,1.61-8.95,8.69.12,10.18,1.83,20.52-1.22,30.59h0s.01.01.01.01c.03,0,.06,0,.09,0,.06,0,.12.01.18.02.41.04.82.08,1.23.12h0c10.52-.07,21.05-.45,31.55-.1,5.42.18,6.79-1.73,6.62-6.83-.36-10.69-.14-21.4-.16-32.1-.04,0-.08,0-.12,0h0Z"/>
    <path class="cls-16" d="M733.72,315.9c-.03,29.46-.11,58.92.13,88.38.06,6.88-1.95,9.5-9.01,9.11-8.67-.48-17.39-.13-26.09-.09-.35,0-.7,0-1.05,0,0,0,0,0,0,0,0,.54-.02,1.09-.03,1.63,0,.02,0,.04,0,.07,0,.04,0,.08,0,.13h0s.08,0,.12,0c12.5-.07,25-.13,37.5-.2,0-35.86.02-71.73-.07-107.59,0-2.29.73-4.79-.3-6.97l-.44,15.08c-.15.07-.42.22-.77.45Z"/>
    <path class="cls-58" d="M619.01,493.19h0s0,0,0,0c-.22.58-.53,1.07-.89,1.5-.55.66-1.24,1.18-2.11,1.53,3.11,7.23,2.84,14.85,3.19,22.52.33,7.03-1.54,10.02-9.02,9.29-6.19-.61-12.49-.06-18.73-.15-3.1-.05-5.96.41-8.37,2.5,0,0-.22.67-.22.67h0s0,0,0,0c10.79,0,21.59-.17,32.37.08,4.19.1,5.68-1.09,5.57-5.45-.27-10.78-.06-21.57-.04-32.36h0c-.58-.04-1.17-.08-1.75-.12Z"/>
    <path class="cls-3" d="M196.41,607.34c.02-25.35.03-50.71.05-76.07,0-.13,0-.26,0-.39-11.53.13-23.05.27-34.58.4,1.71,3.41,4.45,1.07,6.69,1.11,8.04.13,16.08.06,24.13.08.18,0,.45.16.52.3,0,.01.02.02.02.03.27,1.11-.69.92-1.27,1.13,2.04,49.43,1.38,98.89,1.5,148.34,0,.3,0,.6,0,.91.93.05,1.85.1,2.77.14.05-25.09.11-50.19.16-75.28h0s0,0,0,0c0-.24,0-.47,0-.71Z"/>
    <path class="cls-18" d="M161.82,683.24c-.39-.61-.67-1.25-.89-1.89-.74-2.18-.64-4.51-.64-6.84.01-43.32.22-86.64-.18-129.96-.06-6,2.04-8.79,5.86-9.91,1.23-.36,2.64-.55,4.22-.61,7.25-.29,14.53-.07,21.79-.08h0c.58-.21,1.53-.02,1.27-1.13,0-.01-.02-.02-.02-.03-.07-.14-.35-.3-.52-.3-8.04-.02-16.09.05-24.13-.08-2.24-.04-4.98,2.3-6.69-1.11-6.6-1-4.33,4.07-4.34,6.88-.12,46.56-.1,93.11,0,139.67,0,2.28-1.32,5.01,1.24,6.91.68-1.18,1.8-1.46,3.04-1.51Z"/>
    <path class="cls-25" d="M198.02,530.77c0-.64,0-1.28.01-1.91,0-.32,0-.64,0-.96h0,0c0-18.97.01-37.94-.04-56.91,0-2.55.23-5.05.64-7.52.41-2.52,1.01-5,1.75-7.47.18-.61.37-1.22.57-1.82,0,0,0,0,0,0-1.5-.08-3-.16-4.51-.23,0,0,0,0,0,0,.02,25.64.05,51.29.07,76.93.15-.01.3-.02.46-.03.35-.02.69-.05,1.04-.07Z"/>
    <path class="cls-5" d="M198.41,715.34c-.84-3.19-.71-6.97-.65-10.9.03-2.13.46-4.21.94-6.28.79-3.43,1.71-6.83,1.17-10.36-.08-.55-.19-1.1-.35-1.65h0,0c-.79.05-1.58.09-2.37.14-.25.02-.51.03-.76.05h0c.06,12.54.12,25.07.17,37.61.02,0,.04,0,.06,0,3.97-.08,7.94-.15,11.9-.23-6.39-1.19-9.03-4.29-10.1-8.36Z"/>
    <path class="cls-69" d="M193.1,683.19c-.07,0-.14,0-.21,0-.44,0-.87,0-1.31,0-9.9.02-19.8.03-29.69.05-.02,0-.04,0-.06,0,0,0,0,0,0,0-1.24.05-2.36.33-3.04,1.51,11.01,1.08,22.04.49,33.06.3,0,0,0,0,0,0,.91-.45,2.08-.25,3.05-.55.54-.17,1.03-.48,1.37-1.17,0,0,0,0,0,0-.92-.05-1.85-.1-2.77-.14-.13,0-.25,0-.38,0Z"/>
    <path class="cls-62" d="M468.85,644.83c.27-.26.53-.52.8-.78h0c-.5-7.7.97-15.46-1.25-23.14-1.45-5.03,1.87-7.83,6.3-8.24,6.39-.58,12.62-3.04,19.29-1.29,2.61.69,5.64-.21,8.5-.47.11,0,.21-.02.32-.03.54-.5,1.09-1.01,1.63-1.51h0c.24-.39.29-.81.2-1.25-.07,0-.14,0-.22,0h0,0c.03-.06.06-.11.09-.16-.29,0-.58,0-.87,0-10.18-.02-20.36-.04-30.54-.04-2.8,0-6.3-.04-6.25,3.66.16,11.36-1.86,22.81,1.15,34.07,0,0,0,0,0,0h0c.28-.28.56-.55.84-.83Z"/>
    <path class="cls-52" d="M426.37,686.3c-.16,0-.31-.01-.47-.02-.03.06-.06.11-.1.17-2.34,3.9-3.42,7.77-1.77,12.52,1.01,2.9.32,6.41.33,9.65.02,12.75-.01,12.17-12.61,12.58-6.87.23-13.67-.22-20.5-.22-.53,0-1.07-.02-1.6,0h0c.01.82.02,1.63.04,2.45,0,.23,0,.46.01.7h0c10.8-.03,21.6-.23,32.39-.02,4.11.08,5.78-.92,5.64-5.37-.33-10.78-.19-21.57-.24-32.36h0c-.37-.02-.75-.04-1.12-.05Z"/>
    <path class="cls-10" d="M464.65,652.69c-.05.12-.09.25-.14.37-2.35,6.72-.51,13.73-.81,20.57-.2,4.67-.24,7.07-1.37,8.3-1.18,1.3-3.56,1.31-8.63,1.3-6.97-.02-13.94,0-20.9-.26-.29-.01-.58-.01-.87-.03-1.29-.05-2.17-.03-2.6.67-.19.31-.31.73-.32,1.35,10.94.1,21.89.11,32.83.36,3.62.08,4.76-1.31,4.68-4.81-.23-9.2-.19-18.4-.26-27.6,0,0,0,0,0,0-.38-.45-.77-.91-1.15-1.36h0c-.17.38-.32.75-.46,1.13Z"/>
    <polygon class="cls-44" points="504.27 645.6 504.27 645.59 504.27 645.6 504.27 645.6"/>
    <path class="cls-39" d="M504.42,608.12h0c.07,0,.14,0,.22,0,12.99-.09,25.98-.18,38.97-.27-.05-.07-.09-.13-.14-.2-1.39-1.87-1.26-3.83-.2-5.84-.68.92-1.42,1.66-2.2,2.26-1.37,1.05-2.89,1.66-4.51,2-1.94.4-4.03.42-6.22.33-7.1-.28-14.22-.2-21.34-.21-.87,0-1.73,0-2.6,0-.27,0-.54,0-.81,0,0,0,0,0,0,0,0,0,0,0,0,0-.09.15-.18.3-.27.45-.27.44-.53.88-.8,1.32-.03.05-.06.1-.09.15h0Z"/>
    <path class="cls-14" d="M232.14,724.12c.68.01,1.37.02,2.05.04.09-1.56.18-3.12.27-4.68h0c0-.35,0-.71,0-1.06-.06-8.93-.19-17.87-.13-26.8.03-3.46-.76-6.27-4.69-6.23-10.04.09-20.08.49-30.12.76h0c.16.55.27,1.1.35,1.65.54,3.53-.37,6.93-1.17,10.36-.48,2.07-.91,4.15-.94,6.28-.06,3.94-.18,7.72.65,10.9,1.07,4.07,3.71,7.17,10.1,8.36,5.98.1,11.96.21,17.94.31.73.01,1.46.03,2.18.04,1.17.02,2.34.04,3.51.06Z"/>
    <path class="cls-43" d="M389.65,720.97c.53,0,1.07,0,1.6,0,6.82,0,13.63.45,20.5.22,12.6-.42,12.63.17,12.61-12.58,0-3.24.68-6.74-.33-9.65-1.66-4.75-.58-8.61,1.77-12.52.03-.06.06-.11.1-.17.16,0,.31.01.47.02.37.02.75.03,1.12.05h0c.51-.46,1.02-.92,1.53-1.38.01-.62.13-1.05.32-1.35.43-.69,1.3-.72,2.6-.67.29.01.58.02.87.03,6.96.25,13.93.24,20.9.26,5.07.01,7.45,0,8.63-1.3,1.13-1.23,1.16-3.63,1.37-8.3.3-6.85-1.54-13.86.81-20.57.04-.12.09-.25.14-.37.14-.38.29-.76.46-1.13h0c.11-.88.07-1.61-.1-2.22-.43-1.61-1.79-2.35-4.13-2.33-9.51.08-19.02.17-28.52-.02-4.17-.08-5.09,2-4.98,5.56.13,4.5.34,9.03-.03,13.5-.53,6.35,1.84,12.94-1.47,19.06h0c-9.95-.09-19.91.01-29.85-.32-4.72-.16-6.64,1.27-6.53,6.18,0,.05,0,.08,0,.13.27,8.94-.06,17.9-.13,26.85h0c.1,1.01.19,2.01.29,3.01Z"/>
    <path class="cls-37" d="M237.95,728.07c.26.17.54.32.85.45h.04c32.12,0,64.24-.01,96.36-.01,13.19,0,26.38-.09,39.57.05,3.21.03,6.32-.25,9.39-.93.46-.1.92-.23,1.37-.35.3-.6.65-1.2,1.07-1.78.46-.01.92-.02,1.38-.01h0c-1.91-2.49-4.64-1.44-7-1.45-46.02-.07-92.05-.07-138.07,0-2.37,0-5.1-.99-7.01,1.48.47.5.94,1,1.41,1.5.24.35.45.71.64,1.06Z"/>
    <path class="cls-73" d="M385.54,727.28c.17-.04.34-.08.51-.13.19-.05.38-.09.56-.14.01,9.05-.3,18.11.16,27.14.26,5.16-1.18,7.16-5.44,7.58.32,0,.64,0,.97,0,4.76.03,6.02-1.66,5.89-6.13-.17-5.75-.19-11.5-.19-17.25,0-3.68,0-7.35,0-11.03,0-.61,0-1.23,0-1.84h0c-.46,0-.92,0-1.38.01-.42.58-.77,1.18-1.07,1.78Z"/>
    <path class="cls-22" d="M235.39,761.72s.08.09.16.17c.08.08.15.16.15.16h0c.93-.17,1.86-.34,2.79-.51.23-.18.41-.39.57-.61l-1.35-.03c0-.18,0-.38,0-.57,0-1.05,0-2.12-.01-3.21-.07-9.23-.4-19.79-.39-28.6.29,0,.58,0,.87,0-.07-.15-.14-.3-.23-.45-.19-.36-.4-.71-.64-1.06-.47-.5-.94-1-1.41-1.5-.17,12.07-.34,24.13-.51,36.2,0,0,0,0,0,.01h0Z"/>
    <path class="cls-9" d="M389.63,299.99c.01.06.02.11.03.17.04-.02.09-.02.13-.04,7.07-2.42,14.17.14,21.26,0,4.01-.08,7.94-.3,11.8-1.43,0,0,0,0,0,0h0c3.04-2.17,2.94-5.32,3.12-8.65.32-6.13-1.42-12.4,1.12-18.39,0,0,0,0,0,0,.21-1.03.41-2.07.62-3.1h0c-.15-.53-.3-1.05-.45-1.58h0s0,0,0,0c-1.33-1.2-2.15-2.65-2.58-4.29-.13-.48-.23-.97-.29-1.48-.51.03-1.02.05-1.53.08-.14.77-.43,1.33-.82,1.74-.71.73-1.77.96-3.02.93-6.98-.15-14.01.2-20.92-.6-1.03-.12-1.9-.12-2.68-.06-3.08.27-4.28,2.04-4.25,5.89.05,7.49.08,14.98-.02,22.47-.03,2.38.87,5.08-1.6,6.94h0s0,0,0,0l-.21-.19.18.96c.04.21.08.42.12.63Z"/>
    <path class="cls-35" d="M430.41,260.64h0,0c0-9.25.1-18.5-.04-27.74-.06-3.97.99-6.34,3.52-7.47,1.28-.57,2.93-.83,5.03-.8,21.75.28,43.51.1,65.26.1-2.08-2.82-5.09-1.49-7.65-1.5-22.83-.11-45.66-.06-68.48-.05,0,.29,0,.57-.01.86-.2,12.28-.4,24.56-.6,36.84.14-.01.28-.02.42-.03.85-.06,1.7-.13,2.55-.19Z"/>
    <path class="cls-85" d="M391.14,291.64c.1-7.49.08-14.98.02-22.47-.03-3.85,1.17-5.62,4.25-5.89.78-.07,1.65-.06,2.68.06,6.9.8,13.94.45,20.92.6,1.25.03,2.31-.2,3.02-.93.39-.41.68-.97.82-1.74-9.54-.12-19.08-.12-28.62-.41-4.01-.12-5.17,1.54-5.07,5.34.28,10.79.27,21.59.38,32.38h0c2.47-1.86,1.57-4.55,1.6-6.94Z"/>
    <path class="cls-85" d="M427.25,266.96h0c.01-.8.02-1.61.03-2.41.01-1.06.03-2.13.04-3.19,0-.12,0-.24,0-.36-.98.06-1.96.13-2.95.19.06.51.17,1,.29,1.48.43,1.64,1.25,3.1,2.58,4.29Z"/>
    <path class="cls-60" d="M507.2,194.23c.03-2.03.24-3.55.79-4.67.94-1.93,2.85-2.66,6.46-2.65,45.15.21,90.3.18,135.46.02,5.11-.02,7.28,1.35,6.95,6.76-.51,8.55,1.49,17.49-4.61,24.98,0,0,0,0,0,0h0c.18.49.42.76.69.89.32.15.7.12,1.1-.03,1.51-.55,3.39-2.45,4.09,0,.06.22.12.47.16.76,0,0,0,0,0,0,0,0,0,0,0,0,.15-.04.3-.05.45-.08.24-.04.47-.1.71-.12,0,0,0,0,0,0,.13-1.98.27-3.96.4-5.94,0-.11,0-.23,0-.34,0-.36-.02-.72-.03-1.08,0-.03,0-.05,0-.08-.09-9.47-.18-18.95-.27-28.42,0,0,0-.01,0-.02-51.26-.05-102.52-.1-153.77-.15h0c0,.33,0,.65,0,.98.07,11.2.13,22.39.2,33.59,2.97-8,1.11-16.29,1.21-24.43Z"/>
    <path class="cls-49" d="M516.9,220.24c17.77-.08,35.54-.06,53.31-.02,2.06,0,4.16-.34,6.24-.6,3.74-.46,7.46-.62,10.92,2.11,11.48.06,22.97.12,34.45.19h.31s0,0,0,0c0,0,0,0,0,0,1.02-.13,2.04-.25,3.06-.38,4.12-2.72,8.71-1.05,13.07-1.24,3.49-.15,6.97-.09,10.38-.69,1.1-.19,2.19-.46,3.27-.83.11-.04.22-.06.33-.1,0,0,0,0,0,0,6.1-7.5,4.1-16.43,4.61-24.98.32-5.41-1.84-6.78-6.95-6.76-45.15.16-90.3.18-135.46-.02-3.61-.02-5.52.71-6.46,2.65-.54,1.12-.76,2.65-.79,4.67-.1,8.13,1.76,16.43-1.21,24.43-.3,2.34.77,3.23,3.03,2.85,0,0,0,0,0,0,2.33-2.22,5.24-1.25,7.88-1.26Z"/>
    <path class="cls-64" d="M438.92,224.63c-2.09-.03-3.75.23-5.03.8-2.53,1.13-3.58,3.5-3.52,7.47.14,9.25.04,18.49.04,27.74h0c.22,0,.44,0,.66,0,24.28.1,48.56.2,72.85.3.08-.08.15-.17.23-.25,0-.04,0-.09,0-.13.02-11.95.03-23.89.05-35.84h0c-21.75,0-43.51.18-65.26-.1Z"/>
    <path class="cls-76" d="M504.33,260.95c0,.5,0,1,0,1.5,0,0,0,0,0,0h0c.02,9.74-.28,19.49.17,29.21.27,5.81-1.96,7.15-7.37,7.07-19.23-.3-38.47-.15-57.7-.17-10.57.15-10.34.15-10.65-10.17-.16-5.45.89-10.98-.11-16.39-.21-1.16-.52-2.31-.95-3.45-.21,1.03-.41,2.07-.62,3.1,0,0,0,0,0,0,0,0,0,0,0,0,.06,7.87.13,15.75.19,23.62,0,1.1.02,2.2.03,3.31,1.04.56,2.09,1.13,3.13,1.69,0,0,0,0,0,0,22.72-.06,45.43-.14,68.15-.13,2.23,0,5.37-1.1,5.58,2.97.11,11.09.21,22.17.32,33.26.43,0,.85-.01,1.28-.01.03-10.79.19-21.58.02-32.36-.05-3.11.6-4.37,3.95-4.41,8.74-.11,17.48-.57,26.21-.88,5.77-.2,7.91,2.52,7.71,8.31-.31,8.94-.1,17.91-.04,26.86,0,.83.02,1.66.02,2.49,0,0,0,0,0,0,5.45-1.03,1.25-6.45,3.9-8.95,1.4,2.38-.45,5.18,1.57,7.52.21-.9.42-1.53.49-2.18,1.36-12.55-4.63-24.4-3.43-37.02.27-2.81-1.15-6.13-5.85-6.26-7.18-.2-9.27-5.88-10.22-11.78-.52-3.18-.28-6.53-.05-9.78.3-4.19-1.48-6.12-5.45-7.63-5.84-2.21-11.47-3.13-17.33-1.27-.44.14-.88.26-1.33.43,0,0,0,0,0,0-.56.4-1.13.8-1.69,1.2-.04.03-.07.05-.11.08,0,0,.19.25.19.25Z"/>
    <path class="cls-21" d="M581.62,225.57c-.11.23-.21.46-.27.69,0,0,0,0,0,0,.04,9.24.28,18.48.06,27.71-.12,5.12,1.7,7.18,6.96,7.05,10.71-.28,21.43-.1,32.14-.11,0-.11,0-.23,0-.34.02-10.11-.02-20.23.12-30.34.03-2.3-1.07-5,1.43-6.81-.02-.09-.04-.17-.06-.26,0-.09.02-.18.03-.27.02-.32.05-.64.1-.96,0,0,0,0,0,0h-.31c-11.48-.07-22.97-.13-34.45-.19-1.44.02-2.88.04-4.32.06-.55,0-1.1.02-1.64.02-.04,0-.08,0-.12,0,0,0,0,0,0,0,.04.45.06.9.07,1.35.03.02.04.04.07.06.96.78.56,1.56.2,2.34Z"/>
    <path class="cls-33" d="M583.05,221.79c1.44-.02,2.88-.04,4.32-.06-3.46-2.73-7.18-2.57-10.92-2.11-2.09.26-4.18.61-6.24.6-17.77-.04-35.54-.06-53.31.02-2.64.01-5.55-.95-7.88,1.26,0,0,0,0,0,0,24.09.1,48.18.21,72.27.31h0s.08,0,.12,0c.55,0,1.1-.02,1.64-.02Z"/>
    <path class="cls-40" d="M574.86,224.71c1.15,0,2.25.11,3.32.36,1.09.25,2.14.64,3.16,1.19,0,0,0,0,0,0,.06-.23.17-.46.27-.69.36-.78.77-1.56-.2-2.34-.03-.02-.04-.04-.07-.06-22.72.02-45.44-.01-68.16.16-2.53.02-6.36-1.98-7.22,2.82,0,0,0,0,0,0,2.04-1.06,4.2-1.44,6.51-1.44,20.79.04,41.58.04,62.38,0Z"/>
    <path class="cls-49" d="M506.4,606.2c.87,0,1.73,0,2.6,0,7.12,0,14.24-.07,21.34.21,2.18.08,4.28.07,6.22-.33,1.63-.34,3.14-.95,4.51-2,.78-.6,1.52-1.34,2.2-2.26.17-10.55.35-21.11.52-31.66h0c-.28,0-.57,0-.85,0-11.43-.02-22.87-.03-34.3-.09-3.36-.02-4.26,1.87-4.18,4.8.28,10.44-.79,20.94,1.13,31.32,0,0,0,0,0,0,.27,0,.54,0,.81,0Z"/>
    <path class="cls-21" d="M268.95,453.98s0,0,0,0h0c-5.64,6.81.44,13.03,1.21,19.47.24,2.01,2.8,1.17,4.3-.11,2.08-1.78,4.14-3.6,6.34-5.23,5.02-3.73,10.05-6.89,16.91-6.69,14.06.41,28.14.07,42.21.17,3.21.02,7.41-1.4,7.53,4.48.1,4.95-2.94,6.8-6.9,7.34-6.17.85-12.41,1.39-18.64,1.65-6.52.27-13.06.05-19.6.06-4.46,0-8.87-.62-12.1,4.06-1.77,2.56-5.47,1.88-8.49,2.01-7.75.32-15.75-1.53-23.19.93-6.66,2.2-11.97,8.18-19.9,7.21-.36-.04-.92,1.55-1.39,2.39,33.19,0,66.37-.03,99.56.01,2.45,0,5.05-.72,7.31.96,2.1.18,4.2.36,6.3.54,0,.1,0,.2,0,.31.01,7.17.02,14.34.03,21.51,0,2.47,0,4.93.01,7.4,0,2.27,0,4.54.01,6.81,0,.53,0,1.06,0,1.58l6.03.36c.39,0,.78-.01,1.17-.02,8.65-.1,17.31-.36,25.96-.16,4.69.11,6.09-1.67,5.99-6.17-.2-9.19-.04-18.38.02-27.58,0-.85.01-1.71.02-2.56,0,0,0,0,0,0-1.92-2.33-4.61-1.54-7.01-1.56-10.59-.07-21.18,0-31.78.02-.13,0-.26,0-.39,0,.05-1.02.1-2.04.15-3.06,0,0,0,0,0,0-.06-9.51-.55-19.04-.02-28.52.36-6.52-2.07-7.87-8.1-7.78-19.02.28-38.05-.04-57.08-.13,0,0,0,0,0,0,0,0,0,0,0,0-1.76.09-3.53.05-5.26.29-3.76.53-5.65-.45-6.39-2.9-.31-1.03-.42-2.32-.36-3.87.34-9.98.1-19.98.08-29.98,0-.19,0-.37,0-.56,0-.12,0-.24,0-.36-.06-.01-.12,0-.18-.01-.33-.05-.66-.08-.99-.07-.07,8.23.1,16.47-.3,24.68-.2,4.2,1.72,8.75-1.34,12.64-.07.08-.12.17-.19.26-.51.05-1.01.11-1.52.16ZM350.4,493.18h0s0,0,0,0h0ZM274.99,458.51c1.27-1.6,3.06-1.49,4.82-1.49,21.11,0,42.23,0,63.34.02.86,0,1.72.3,2.53,1.48h-64.67s0,0,0,0h0c-2.01,1.55-4.02,3.06-6.02-.01h0s0,0,0,0Z"/>
    <polygon class="cls-21" points="237.23 491.73 237.23 491.73 237.23 491.73 237.23 491.73"/>
    <path class="cls-21" d="M237.23,491.73c.42.47.99.61,1.57.72-.52-.24-1.05-.48-1.57-.72,0,0,0,0,0,0Z"/>
    <path class="cls-64" d="M235.76,453.98c10.67,0,21.33,0,32,0,.39,0,.79,0,1.18,0,0,0,0,0,0,0,.51-.05,1.01-.11,1.52-.16,0-.17,0-.35,0-.53,0-1.08.05-2.17-.06-3.23-.97-8.96-4.77-17.72-.32-26.99,1.6-3.35-1.68-5.26-5.28-5.26-6.27,0-12.54.15-18.81-.05-6.23-.2-8.94,2.04-8.93,8.77.01,8.6,1.68,17.35-1.09,25.86-.01.04-.02.07-.03.11-.06.5-.12.99-.18,1.49Z"/>
    <path class="cls-47" d="M235.58,454s.08,0,.12,0c-.02.02-.04.03-.05.05-.01.01-.03.02-.04.04-.49.47-.98.95-1.48,1.42h0c.01,1.47.03,2.94.04,4.41.1,10.74.2,21.47.3,32.21,0,.41,0,.82.01,1.24.83-.5,1.66-1,2.49-1.49.08-.05.16-.1.24-.14,0,0,0,0,0,0,0,0,0,0,0,0,0,0,0,0,0,0,0,0,0,0,0,0,.52.24,1.05.48,1.57.72.49.22.98.45,1.46.67.1,0,.2,0,.29,0,34.51-.14,69.02-.28,103.53-.42-2.25-1.68-4.86-.96-7.31-.96-33.19-.04-66.37-.02-99.56-.01.47-.84,1.03-2.44,1.39-2.39,7.93.97,13.24-5.01,19.9-7.21,7.44-2.46,15.44-.62,23.19-.93,3.02-.12,6.72.56,8.49-2.01,3.23-4.68,7.64-4.05,12.1-4.06,6.53-.01,13.08.21,19.6-.06,6.23-.26,12.47-.8,18.64-1.65,3.96-.55,7-2.39,6.9-7.34-.11-5.88-4.31-4.46-7.53-4.48-14.07-.1-28.15.25-42.21-.17-6.86-.2-11.89,2.96-16.91,6.69-2.2,1.63-4.26,3.45-6.34,5.23-1.5,1.28-4.06,2.12-4.3.11-.77-6.44-6.86-12.66-1.21-19.47h0c-.39,0-.79,0-1.18,0-10.67,0-21.33,0-32,0,.06-.5.12-.99.18-1.49,0-.04,0-.08,0-.12-.21-12-.42-23.99-.62-35.99h0s0,0,0,0c0,0,0,.02,0,.03-2.04,10.79-.51,21.69-.91,32.53-.06,1.65-.16,3.3-.33,4.95.12,0,.25.02.37.03.38.03.76.05,1.14.08Z"/>
    <path class="cls-47" d="M388.16,306.2s0,0,0,0c0,8.54.01,17.09.02,25.63,0,.5,0,1.01.01,1.51h0c-.04,1.31-.07,2.62-.11,3.93,0,.14,0,.27-.01.41,0,0,0,0,0,0,0,0,0,0,0,0,12.36.02,24.72.04,37.08.06,24.35.05,48.69.1,73.04.13,2.14,0,4.5.59,6.2-1.4.03-.04.07-.06.1-.1h0c-.11-11.09-.21-22.17-.32-33.26-2.25-1.34-4.72-1.47-7.26-1.45-21.32.14-42.64.2-63.97.42-1.65.02-2.27-.36-2.5-1.8-1.04-.56-2.09-1.13-3.13-1.69-.28,0-.57.01-.85.02-.41,0-.83.02-1.24.03-.79.02-1.58.04-2.37.06,0,0,0,0,0,0-3.85,1.13-7.79,1.35-11.8,1.43-7.09.14-14.18-2.41-21.26,0-.04.01-.09.02-.13.04-.01-.06-.02-.11-.03-.17-.04-.21-.08-.42-.12-.63l-.18-.96c-9.92,2.05-20.07-.5-30,1.47,0,0,0,0,0,0,9.37.09,18.74.18,28.11.28.74,0,1.48.01,2.22.02-.45,1.02-.89,2.04-1.34,3.07,0,0,0,0,0,0-.02.34-.03.68-.05,1.02-.03.65-.06,1.3-.09,1.95Z"/>
    <path class="cls-65" d="M380.31,336.41c2.32.05,4.33-.29,6.04-1.42.66-.43,1.27-.97,1.84-1.66h0s0,0,0,0c0-.5,0-1.01-.01-1.51-3.28-8.01-.58-16.52-1.91-24.7-.07-.42-.14-.85-.23-1.27.16.03.32.05.48.08.55.09,1.09.17,1.64.26h0s0,0,0,0c.03-.65.06-1.3.09-1.95.02-.34.03-.68.05-1.02,0,0,0,0,0,0-8.05-2.1-16.29-1.17-24.44-1.68-6.85-.43-9.17,1.97-9.1,8.91.09,8.6,1.73,17.39-1.28,25.87.49,0,.98,0,1.47,0,8.45,0,16.91-.1,25.36.08Z"/>
    <path class="cls-63" d="M356.53,338.16s0,0,0,0c3.22-.05,6.44-.1,9.65-.15l6.06-.09c5.13-.08,10.26-.16,15.38-.24.14,0,.29,0,.43,0,0,0,0,0,0,0,0-.14,0-.27.01-.41.04-1.31.07-2.62.11-3.93h0c-.57.69-1.18,1.23-1.84,1.66-1.71,1.13-3.72,1.47-6.04,1.42-8.45-.19-16.9-.09-25.36-.08-.49,0-.98,0-1.47,0-.48.42-.96.84-1.44,1.27,0,0,0,0,0,0,.43.05.86.11,1.28.16,1.07.13,2.14.26,3.21.4Z"/>
    <path class="cls-20" d="M198.64,463.47c-.41,2.47-.64,4.97-.64,7.52.05,18.97.03,37.94.04,56.91h0c.09,0,.18,0,.27,0,.61,0,1.22,0,1.83,0,7.87-.02,15.74-.16,23.61.09,4.61.14,6.08-1.58,6.03-6.1-.19-16.23.11-32.46-.16-48.69-.11-6.44,1-12.3,4.52-17.67,0,0,0,0,0,0h0c.49-.47.98-.95,1.48-1.42.01-.01.03-.02.04-.04.02-.02.04-.03.05-.05-.04,0-.08,0-.12,0-.38-.03-.76-.05-1.14-.08-.12,0-.25-.02-.37-.03-11.04.1-22.08.19-33.12.29,0,0,0,0,0,0-.2.61-.39,1.21-.57,1.82-.74,2.46-1.34,4.95-1.75,7.47Z"/>
    <path class="cls-64" d="M691.9,225.3c-8.7-1.23-17.4-1.18-26.1.15-1.5.23-3,.49-4.49.8,0,0,0,0,0,0-.75,10.81,1.49,21.75-1.17,32.49-.05.19-.09.39-.14.58-.11.52-.22,1.03-.32,1.55,12.36-.02,24.73-.04,37.09-.05.3,0,.59,0,.89,0,0-.03,0-.05,0-.08,0-.03,0-.06,0-.1h0s.06,0,.1,0c-.02-.44-.1-.86-.29-1.26-2.38-9.04-2.42-18.08.03-27.11h0c0-2.01,0-4.02,0-6.02-.63-.13-1.26-.22-1.89-.34-1.23-.23-2.46-.43-3.68-.61Z"/>
    <path class="cls-34" d="M697.75,260.64s-.06,0-.1,0h0s0,.06,0,.1c0,.03,0,.05,0,.08,0,.29.02.57.03.86.02.79.05,1.57.07,2.36.53.16,1.1.29,1.67.42,8.45,1.82,21.51-.14,31.14-.42.63-.33,1.23-.7,1.75-1.16.51-.45.97-.98,1.29-1.68-11.95-.19-23.91-.37-35.86-.56Z"/>
    <path class="cls-45" d="M675.62,223.3c-5.33.31-10.95-1.87-16,1.49h0s.46-.06.47-.07h0s0,0,0,0h0c.26.32.52.64.78.97.02.02.03.04.05.06.13.17.27.33.4.5,0,0,0,0,0,0,1.5-.3,3-.57,4.49-.8,8.7-1.33,17.4-1.38,26.1-.15,1.23.17,2.46.38,3.68.61.63.12,1.26.21,1.89.34-.04-1.03-.07-2.07-.11-3.1h0c-.32,0-.63,0-.95,0-6.94,0-13.89-.24-20.81.16Z"/>
    <path class="cls-45" d="M697.46,259.39c.67-9.04.58-18.08.03-27.11h0c-2.45,9.04-2.41,18.07-.03,27.11Z"/>
    <path class="cls-46" d="M275.14,414.56s0,0,0,0c.94-.42,1.88-.85,2.82-1.27.01,0,.03-.01.04-.02-.02-.2-.04-.4-.06-.59-.44-4.22-1.46-8.33-2.25-12.5-.77-4.02-1.32-8.09-.93-12.34.18-1.93.48-3.46,1.02-4.64,1.04-2.28,3.01-3.26,6.89-3.23,4.77.03,9.53-.17,14.27-.68,4.26-.46,8.5-1.15,12.7-2.17h0c-10.25-.09-20.49-.08-30.74-.33-4.23-.1-5.65,1.58-5.59,5.75.15,10.24-.08,20.48-.16,30.73,0,0,0,0,0,0,.27.17.53.35.8.52.4.26.8.52,1.2.78Z"/>
    <path class="cls-6" d="M622.16,223.33s.09.03.14.05c7.13,2.94,14.58,1.02,21.87,1.26,3.75.13,6.36.27,8.18.78,3.91,1.09,4.26,3.89,4.51,11.89.23,7.14-1.56,14.43,1.07,21.43.04.11.08.22.12.33.03,0,.07-.02.1-.03,0-.1,0-.2,0-.3.1-10.94.19-21.87.29-32.81,0-.4,0-.81.01-1.21,0,0,0,0,0,0h0c-1.97-2.3-4.66-1.45-7.07-1.47-9.75-.11-19.5-.08-29.25-.11-.05,0-.1,0-.14,0l.16.18Z"/>
    <path class="cls-86" d="M658.13,219.55c-.7-2.45-2.58-.56-4.09,0-.4.15-.78.18-1.1.03-.28-.13-.51-.39-.69-.89h0c-.11.04-.22.06-.33.1-1.08.36-2.17.63-3.27.83-3.41.6-6.9.54-10.38.69-4.36.19-8.95-1.49-13.07,1.24,11.03-.49,22.16,1.85,33.1-1.22,0,0,0,0,0,0-.04-.3-.1-.54-.16-.76Z"/>
    <path class="cls-23" d="M660.01,258.74c.02-10.61.04-21.22.07-31.82,0-.36,0-.71,0-1.07,0-.07,0-.13,0-.2v-.93s-.46.07-.46.07h0c-.38-.03-.77-.05-1.15-.06,0,0,0,0,0,0,0,.4,0,.81-.01,1.21-.1,10.94-.19,21.87-.29,32.81,0,.1,0,.2,0,.3,0,.09,0,.19,0,.28.05.49.06.99.03,1.48.5.04,1,.06,1.49.07,0,0,0,0,0,0,.11-.52.22-1.03.32-1.55,0-.19,0-.39,0-.58Z"/>
    <polygon class="cls-23" points="660.08 224.73 660.08 224.73 660.08 224.73 660.08 224.73"/>
    <path class="cls-30" d="M424.55,526.39c-1.44-5.35-5.01-6.11-9.9-4.74-2.42.68-6.03.51-6.24-2.49-.61-8.71-1.41-17.34-3.32-25.87-.16-.71,1.09-1.63,1.4-2.55,3-8.95,8.21-17.64,3.63-27.57-1.49-3.22-.9-6.12,1.89-8.03,7.7-5.28,8.26-12.8,7.96-21.21-.47-13.09-.13-13.11-13.77-13.12-13.33,0-26.67-.44-39.97.21-5.5.27-10.11-5.32-15.75-1.72,0,.32,0,.64,0,.96-.01,8.66-.03,17.33-.04,25.99,0,2.97-.48,6.14,2.98,7.79,0,0,0,0,0,0,0,0,0,0,0,0,1.01,0,2.02,0,3.03-.01,8.05,0,16.1-.01,24.14-.02,7.27-1.33,9.73,1.65,9.17,8.93-.6,7.72-.11,15.52-.16,23.29-.01,2.18.41,5.26-2.76,5.2-11.55-.23-23.19,1.79-34.66-1.05-.1-.02-.19-.04-.29-.07-.44-.04-.87-.11-1.3-.2-.05,1.02-.1,2.04-.15,3.06.13,0,.26,0,.39,0,10.59-.02,21.19-.09,31.78-.02,2.39.02,5.08-.77,7.01,1.56,0,0,0,0,0,0h0c5.05,3.34,4.02,8.52,3.3,13.06-1.05,6.69,1.37,13.21.2,20-.35,2.04,3.7,5,2.71,9.04-.72,2.93-.54,7-3.35,7.77-3.38.92-6.34-3.1-6.98-5.5-1.16-4.36-3.36-3.89-6.55-3.73-5.5.27-11.03.05-16.55.08-3.05.02-5.53-.64-5.94-4.25l-6.03-.36c-.64.87.71,4-1.4,2.56-1.91-1.29-4.24-4.92-2.6-7.28,5.59-8.04-.15-16.1.59-24.14.51-5.52-4.96-5.79-9.47-5.78-32.43.05-64.86.02-97.29.02,0,0,0,0,0,0-.71,7.09,3.97,7.56,9.16,7.55,23.96-.03,47.92-.02,71.88,0,9.93,0,11.13,1.03,10.96,10.64-.18,9.78,2.1,19.37,1.75,29.2-.23,6.54,6.26,9.54,12.68,5.45,5.88-3.75,9.83-3.34,14.09,1.9,3.62,4.44,8.93,2.37,13.5,2.47,5.32.11,9.54.92,9.92,7.38.11,1.79.4,3.55,3.01,3.17,3.27-.48,6.54-.57,9.81-.51,7.16.13,14.33.96,21.51.04,3.01-.39,4.16-1.47,4.2-3.94.07-3.99.26-7.95-.49-11.98-.21-1.13-.37-2.28-.4-3.39-.07-2.66.66-5.08,3.37-6.49.6-.31,1.28-.57,2.08-.77.26-1.81-.29-4.02,1.04-5.31.43-.42,1.05-.74,1.96-.93,0,0,0,0,0,0-1.58-1.88-4.95-1.28-5.77-4.32Z"/>
    <path class="cls-54" d="M495.25,342.31c-5.33-.36-10.38,1.43-15.58,1.51-17.06.28-34.05-.97-51-2.83-.38-.04-.76-.08-1.15-.12-.03,9-.48,18.02.06,26.98.31,5.2-1.52,7.77-6.21,8.93,0,0-.01,0-.02,0,1.3-.06,2.34.07,3.18.38,2.08.76,2.87,2.64,2.89,5.55,0,.28.02.54,0,.84-.3,7.38.05,14.78.12,22.18.08-.21.14-.41.22-.62,2.4-6.79.92-13.84.95-20.74,0-1.65.12-3.02.45-4.12.74-2.44,2.54-3.55,6.61-3.33,8.47.45,16.98.22,25.47.07,3.73-.06,5.49,1.15,5.42,5.14-.16,9.23-.07,18.47-.04,27.71,0,2.38-.16,4.57-3.15,5.05,1.08.97,2.15,1.93,3.23,2.9,0,0,0,0,0,0,.06.07.12.15.18.22,4.36,5.11,3.58,11.65,4.08,17.54.99,11.79.59,11.53,12.02,14.25,5.34,1.27,10.04,1.38,13.37-3.22,2.01-2.78-2.28-14.53-6.07-15.88-7.69-2.74-11.58-7.25-10.15-15.65.31-1.84-.72-3.41-2.29-4.46-1.66-1.1-2.72-2.8-1.88-4.46,4.1-8.12,1.51-17.75,6.72-25.86,4.34-6.76,1.69-17.11-3.76-21.16-2-1.49-6.03-1.82-3.93-5.77,1.97-3.7,5.68-4.49,9.08-2.75,4.15,2.13,8.68,2.26,12.96,3.54,3.31.99,6.1.24,5.81-4.22.01-.12.02-.23.03-.34.5-5.45-2.71-6.93-7.62-7.27Z"/>
    <path class="cls-26" d="M284.59,417.64c-1.8.06-3.25.25-4.41.68-2.4.89-3.58,2.82-4.04,6.86-.22,1.93-.37,3.85-.51,5.78-.29,4.28-.45,8.54-.74,12.82-.41,5.92.55,9.94,7.84,8.84.82-.12,1.77.7,2.67,1.08,0,0,0,0,0,0,19.03.09,38.06.41,57.08.13,6.03-.09,8.46,1.26,8.1,7.78-.52,9.48-.03,19.01.02,28.52,0,0,0,0,0,0,.43.09.86.15,1.3.2.02-.27.05-.54.08-.82.12-1.36.31-2.71.53-4.06,1.19-7.24,3.38-14.45,2.05-22.04-.14-.03-.18-.39-.16-.74-.08-.37-.14-.74-.24-1.12,8.76,2.36,18.05,1.51,29.14,1.25,0-.05.03-.09.03-.14-8.99-2.63-16.81,1.06-23.85-2.62h23.86c-2.59-1.16-3.06-2.5-3.02-3.85.02-.73.2-1.46.28-2.18-8.05,0-16.1.01-24.14.02-.06.79.14,1.45.43,2.06.4.82.99,1.53,1.56,2.27.4.53.78,1.06,1.03,1.67-2.97-.77-7.98.52-6.46-4.78.11-.37.24-.77.41-1.2,0,0,0,0,0,0-3.46-1.66-2.98-4.82-2.98-7.79,0-8.66.02-17.33.04-25.99,0-.32,0-.64,0-.96-.22-1.22-.68-1.97-1.26-2.43-1.37-1.08-3.5-.55-5.27-.56-10.2-.06-20.4-.02-30.6,0-1.73,0-3.45,0-5.18.01-7.69,3.26-15.74,1.06-23.6,1.31Z"/>
    <path class="cls-68" d="M463.47,414.9c-.11,0-.22,0-.33,0-11.29.16-22.58.32-33.87.48-.13,0-.27,0-.4,0,0,0,0,0,0,0-.23.28-.52.47-.84.61-.09.04-.17.1-.27.13,0,0,0,0,0,0-.1,10.74-.07,21.48-.35,32.21-.11,4.2,1.4,5.78,5.64,5.67,9.24-.22,18.5-.33,27.74-.01,4.87.17,5.9-1.93,5.83-6.23-.16-9.88.03-19.76.09-29.64,0-.11,0-.22,0-.33-1.08-.97-2.15-1.93-3.23-2.9Z"/>
    <path class="cls-61" d="M505.86,337.98h0c-1.33,3.81-1.31,7.78-1.44,11.74,0,.07,0,.14,0,.21h0c.03,7.03.15,14.05.05,21.07-.06,4.01,1.4,6.07,5.68,6.02,9.54-.12,19.08-.04,28.61-.05,2.37,0,4.71-.14,4.72-3.37.03-10.54.02-21.07.03-31.61,0-2.12-1.96-2.75-3.06-4.03-.09,0-.17,0-.26,0-11.44,0-22.89.01-34.33.02Z"/>
    <polygon class="cls-32" points="620.59 337.9 620.59 337.9 620.59 337.9 620.59 337.9"/>
    <path class="cls-1" d="M543.67,307c.2-5.79-1.94-8.51-7.71-8.31-8.74.31-17.47.77-26.21.88-3.35.04-4,1.3-3.95,4.41.17,10.78.01,21.57-.02,32.36,0,.08,0,.15.01.23.02.32.04.64.05.95,0,.15.02.3.02.44,0,0,0,0,0,0h0c11.44,0,22.89-.01,34.33-.02.09,0,.17,0,.26,0,1.07-.54,2.13-1.07,3.2-1.61h0c0-.83-.01-1.66-.02-2.49-.06-8.96-.27-17.92.04-26.86Z"/>
    <path class="cls-56" d="M620.59,337.27c0-6.48.24-12.97-.11-19.43-.33-6.1,1.54-12.41-1.19-18.32-.1-.22-.19-.44-.31-.65-.42-.02-.83-.06-1.25-.13-11.19,2.09-22.38,2.14-33.57,0,0,0,0,0-.01,0-.35.08-.69.07-1.03-.02-1.08,2.96.6,6.44-1.71,9.18,0,0,0,0,0,.01,0,9.42,0,18.84,0,28.26.71.68,1.5,1.08,2.32,1.34,1.45.46,3.02.45,4.56.58.2.02.39.03.59.05h0s0,0,0,0c10.55-.07,21.1-.14,31.65-.21.02,0,.05,0,.07,0h0s0-.05,0-.07c0-.02,0-.04,0-.06,0-.17,0-.33,0-.5Z"/>
    <path class="cls-84" d="M588.28,338.06c-1.54-.13-3.11-.12-4.56-.58-.82-.26-1.61-.66-2.32-1.34.21,1.22.59,2.44.59,3.66,0,1.02-.49,1.92-1.86,1.15-.56-.32-1.6-3.32-1.68-.28-.16,6.95-.81,13.95.44,20.92,1.02,5.66,6.37,3.47,9.36,5.49.41.28.74.67,1.13.98,7.36,5.71,15.8,3.71,23.34,1.76,8.17-2.11,6.41-10.12,6.27-16.47-.14-6.19-5.91-12.15-11.71-10.66-6.43,1.65-12.31-.09-18.43-.32,0,0,0,0,0,0,0,0,0,0,0,0-.05.04-.1.08-.15.13-.05.05-.11.1-.16.14-.03.02-.06.05-.09.07-.39.33-.77.64-1.09.91-2,.2-2.95-.65-2.77-2.43.05-.44.89-.8,1.36-1.2.69.94.97,2.38,2.41,2.42.15,0,.3,0,.47-.02,0,0,.01,0,.02-.01,0-1.41,0-2.83,0-4.26h0c-.19-.02-.39-.04-.59-.05Z"/>
    <path class="cls-17" d="M505.86,337.98s0,0,0,0c0-.15-.02-.3-.02-.44-.02-.32-.04-.64-.05-.95,0-.08,0-.15-.01-.23-.43,0-.85,0-1.28.01h0s-.07.06-.1.1c-1.7,2-4.06,1.4-6.2,1.4-24.35-.03-48.69-.08-73.04-.13-12.36-.02-24.72-.04-37.08-.06,0,0,0,0,0,0-.14,0-.29,0-.43,0-5.13.08-10.26.16-15.38.24l-6.06.09c-3.22.05-6.44.1-9.65.15,0,0,0,0,0,0,2.41,1.98,5.27,1.1,7.92,1.11,18.43.08,36.87.02,55.3.1,1.17,0,2.39-.16,3.59-.14.2,0,.39.02.59.02,1.29.1,2.52.48,3.59,1.63,0,0,0,0,0,0,.38.04.76.08,1.15.12,16.95,1.86,33.94,3.11,51,2.83,5.2-.09,10.25-1.87,15.58-1.51,4.92.33,8.12,1.82,7.62,7.27-.01.12-.01.22-.03.34.52,0,1.05,0,1.57,0,0,0,0,0,0,0,0-.07,0-.14,0-.21.13-3.96.11-7.93,1.44-11.74Z"/>
    <path class="cls-53" d="M543.68,452.47s0,0,0,0c.65-.65,1.2-1.33,1.68-2.02.78-1.13,1.35-2.31,1.76-3.52,1.44-4.29.94-9.03.97-13.62.07-12.1.38-12.36,12.67-12.53,6.5-.09,13.48,1.64,19.34-4.49h-36.26c-.05,11.1-.1,22.2-.15,33.3,0,.96,0,1.92-.01,2.89Z"/>
    <path class="cls-4" d="M466.44,509.59c.17,5.08.6,10.16.31,15.22,0,0,0,0,0,0,2.51-5.34,1.49-10.92,1.28-16.45-.04-1.16-.06-2.32.01-3.48.12-2.04.42-3.76,1.03-5.14,1.17-2.65,3.48-3.98,7.91-3.6,2.16.19,4.33.21,6.51.2,3.1-.02,6.2-.13,9.3-.1,2.3.02,4.55.02,6.09-1.64.36-.38.68-.83.95-1.41-.02,0-.04,0-.06,0-4.07,0-8.15,0-12.22-.01-6.5,0-13-.01-19.5-.02,0,0,0,0,0,0,0,0,0,0,0,0-1.69,5.43-1.81,10.92-1.62,16.42Z"/>
    <path class="cls-4" d="M499.85,493.2h0s0,0,0,0c0,0,0,0,0,0Z"/>
    <path class="cls-77" d="M273.47,417.24c.02,9.99.26,20-.08,29.98-.05,1.55.05,2.84.36,3.87.73,2.45,2.63,3.43,6.39,2.9,1.73-.25,3.5-.2,5.26-.29,0,0,0,0,0,0-.89-.38-1.85-1.21-2.67-1.08-7.29,1.1-8.25-2.91-7.84-8.84.3-4.27.45-8.54.74-12.82.13-1.92.29-3.85.51-5.78.46-4.04,1.64-5.97,4.04-6.86,1.16-.43,2.61-.62,4.41-.68,7.86-.25,15.9,1.95,23.6-1.31-11.57,0-23.15,0-34.72,0h0c0,.12,0,.24,0,.36,0,.19,0,.37,0,.56Z"/>
    <path class="cls-30" d="M422.41,426.76c.63-2.03.73-3.87-.59-7.11-.25,3.32-1.36,5.29.59,7.11Z"/>
    <path class="cls-74" d="M463.14,414.9c.11,0,.22,0,.33,0,2.98-.48,3.15-2.66,3.15-5.05-.03-9.24-.12-18.47.04-27.71.07-3.99-1.7-5.2-5.42-5.14-8.49.15-17,.38-25.47-.07-4.07-.22-5.87.89-6.61,3.33-.33,1.1-.45,2.47-.45,4.12-.03,6.9,1.46,13.95-.95,20.74-.07.21-.14.41-.22.62,0,0,0,0,0,0,.02.32.02.65.01.97-.06,2.96-1.03,6.04,1.31,8.67h0c.13,0,.27,0,.4,0,11.29-.16,22.58-.32,33.87-.48Z"/>
    <path class="cls-32" d="M421.86,544.22c.03,1.11.19,2.26.4,3.39.75,4.03.56,7.99.49,11.98-.04,2.48-1.19,3.55-4.2,3.94-7.17.92-14.35.08-21.51-.04-3.28-.06-6.55.03-9.81.51-2.61.38-2.9-1.38-3.01-3.17-.39-6.46-4.61-7.27-9.92-7.38-4.58-.1-9.88,1.97-13.5-2.47-4.26-5.23-8.21-5.64-14.09-1.9-6.42,4.09-12.91,1.09-12.68-5.45.35-9.84-1.93-19.42-1.75-29.2.17-9.62-1.03-10.64-10.96-10.64-23.96-.02-47.92-.02-71.88,0-5.2,0-9.88-.47-9.16-7.55-.54,1.39-.92,2.79-1.2,4.2-1.45,7.38.24,14.93-.19,22.37-.28,4.85-.75,9.27-4.64,12.64h0s0,0,0,0c3.57.24,4.46,2.54,4.59,5.68.15,3.83,2.36,6.1,6.13,6.32,6.48.38,12.98-.27,19.45,1.17,2.04.45,5.25-2.58,5.84,1.69.42,3.05,1.41,6.8-2.3,8.8-3.43,1.85-6.63,4.15-11.07,3.63-4.46-.52-9.04-.25-13.56-.08-5.47.21-10.08-.34-10.87-7.28-.4-3.54-4.02-3.72-6.48-4.15-3.48-.6-5.16,2.76-6.88,5.03-1.72,2.27.57,4.11,1.88,5.87.45.6.97,1.39,1.6,1.56,8.96,2.33,6.11,9.99,7.1,15.81,1.25,7.29-1.87,14.8,1.12,22.11,1.02,2.49-1.67,4.5-3.27,3.49-9.41-5.92-18.64-3.05-27.97-.23,0,.4,0,.8-.01,1.2,0,.58,0,1.17-.01,1.75,11.56.04,23.12.07,34.68.11-.04.49-.09.98-.13,1.48h0c0,.13,0,.27,0,.4.07,12.38.14,24.75.21,37.13h.03c36.42.05,72.83-.03,109.25.27,5.91.05,7.27-2.07,7.03-7.46-.38-8.52.02-17.07-.15-25.61-.09-4.53,1.79-6.31,6.28-6.22,8.79.17,17.59.11,26.38.02,2.56-.03,5.84,1.07,6.57-3.06,2.26-2.41,2.27-5.41,2.27-8.44,0-6.49.07-12.99-.02-19.48-.05-4.01,1.14-5.89,5.71-5.46,8.44.8,16.94-.08,25.4.52,8.14-.91,5.32-6.32,4.49-10.91,0-1.1-.02-2.19-.02-3.29-.05-5.94-.09-11.87-.14-17.81,0-1-.02-2-.02-3,0,0,0,0,0,0-.8.2-1.49.46-2.08.77-2.72,1.4-3.44,3.83-3.37,6.49ZM232.47,563.64c-.22.58-.77,1.04-1.56,2.03-.27-1.21-.68-1.95-.47-2.39.23-.47,1.05-.65,1.62-.95.15.44.54.98.41,1.31ZM267.28,607.96c-10.92-.25-21.85-.13-32.78-.16-.06,0-.13,0-.19,0h-.04s0,.05,0,.08c0,0-.07-.08-.07-.08.03,0,.05,0,.08,0,0-.02,0-.03,0-.05,0-.05,0-.11,0-.16.04-10.43.28-20.86.01-31.28-.13-4.98,1.59-6.57,6.5-6.38,8.76.34,17.56.35,26.32,0,5.09-.2,6.51,1.81,6.36,6.57-.27,8.51-.28,17.04.01,25.55.16,4.74-1.75,6.02-6.19,5.92Z"/>
    <path class="cls-64" d="M699.44,264.45c-.58-.12-1.14-.26-1.67-.42-.04,8.9-.71,48.41-.94,66.62-.02,1.56-.04,2.95-.05,4.16-.01,1.33-.02,2.45-.03,3.29.2.14.51.18.89.15.03,25.02.05,50.03.08,75.05h0c.35,0,.7,0,1.05,0,8.7-.04,17.42-.39,26.09.09,7.06.39,9.06-2.23,9.01-9.11-.24-29.46-.16-58.92-.13-88.38.35-.22.62-.38.77-.45l.44-15.08.37-12.74c-.06,1.11-.26,2.25-.18,3.33-8.64-.91-2.23-4.68-1.41-7.4,1.35,1.08,1.62,2.36,1.6,3.7l.68-23.16c-1.61-.13-3.46-.14-5.43-.08-9.62.28-22.69,2.24-31.14.42Z"/>
    <path class="cls-36" d="M234.26,646.88c-.07-12.37-.14-24.75-.21-37.13,0-.13,0-.26,0-.4h0c-8.79,0-17.58-.02-26.37,0-8.84.02-9.18.49-7.01,9.42,5.7-4.61,11.89-4.3,18.31-1.96,3.09,1.13,4.59,6.24,7.72,5.05,3.67-1.39-.04-6.51,2.99-10.18,0,7.28.44,13.76-.13,20.14-.53,5.92,2.67,12.37-2.59,17.87-.96,1.01,2.57,3.72,1.99,6.33,2.61-.13,5.53.06,3.58-4.11-.6-1.29.3-1.78,1.45-1.75,1.65.03,2.96.43,2.67,2.59-.7,5.17,2.19,5.48,6.3,4.97,3.46-.44,7.02-.02,10.54-.11,29.57-.73,59.18,1.63,88.72-1.45,3.42-.36,6.63-.11,6.22-5.14-.37-4.63-3.74-2.33-5.52-2.34-33.4-.16-66.8-.09-100.2-.18-2.84,0-6.08,1.23-8.44-1.6,0,0-.01-.01-.02-.02h0Z"/>
    <path class="cls-32" d="M658.06,259.07c-.04-.11-.08-.22-.12-.33-2.63-7-.84-14.29-1.07-21.43-.26-8-.6-10.79-4.51-11.89-1.83-.51-4.43-.65-8.18-.78-7.29-.24-14.74,1.67-21.87-1.26-.05-.02-.09-.03-.14-.05,0,0,0,0,0,0-.04.03-.07.05-.1.08-2.5,1.81-1.4,4.51-1.43,6.81-.14,10.11-.1,20.23-.12,30.34,0,.11,0,.23,0,.34-10.71,0-21.43-.17-32.14.11-5.27.14-7.08-1.93-6.96-7.05.21-9.23-.02-18.47-.06-27.71,0,0,0,0,0,0,0,0,0,0,0,0-1.02-.55-2.07-.94-3.16-1.19-1.07-.25-2.17-.36-3.32-.36-20.79.05-41.58.05-62.38,0-2.32,0-4.47.37-6.51,1.44-.01,11.09-.02,22.18-.03,33.28.44-.17.88-.29,1.33-.43,5.87-1.86,11.5-.94,17.33,1.27,3.97,1.5,5.75,3.44,5.45,7.63-.23,3.25-.46,6.6.05,9.78.96,5.89,3.04,11.58,10.22,11.78,4.7.13,6.12,3.45,5.85,6.26-1.2,12.62,4.78,24.48,3.43,37.02-.07.65-.28,1.28-.49,2.18-2.02-2.34-.16-5.14-1.57-7.52-2.65,2.5,1.56,7.91-3.9,8.95,0,0,0,0,0,0h0c-1.06.54-2.13,1.07-3.2,1.61,1.11,1.28,3.06,1.91,3.06,4.03,0,10.54,0,21.07-.03,31.61-.01,3.23-2.35,3.37-4.72,3.37-9.54,0-19.08-.07-28.61.05-4.28.05-5.74-2-5.68-6.02.1-7.02-.02-14.05-.05-21.07h0s0,0,0,0c-.52,0-1.05,0-1.57,0,.29,4.47-2.5,5.21-5.81,4.22-4.28-1.28-8.81-1.41-12.96-3.54-3.4-1.75-7.11-.96-9.08,2.75-2.11,3.95,1.92,4.29,3.93,5.77,5.45,4.05,8.1,14.39,3.76,21.16-5.21,8.11-2.63,17.74-6.72,25.86-.84,1.67.22,3.36,1.88,4.46,1.56,1.04,2.6,2.61,2.29,4.46-1.43,8.41,2.47,12.91,10.15,15.65,3.79,1.35,8.08,13.1,6.07,15.88-3.33,4.6-8.03,4.49-13.37,3.22-11.42-2.72-11.03-2.46-12.02-14.25-.49-5.89.28-12.43-4.08-17.54-.06.03-.12.08-.18.11-.05,9.88-.25,19.76-.09,29.64.07,4.3-.96,6.4-5.83,6.23-9.24-.32-18.5-.21-27.74.01-4.24.1-5.75-1.47-5.64-5.67.28-10.73.25-21.47.35-32.21,0,0,0,0,0,0,0,0,0,0,0,0-1.18-.35-2.36-.7-3.53-1.05,0,0,0,0,0,0-1.16,1.2-2.67,1.21-4.17,1.21h-.16c-20.69,0-41.38,0-62.08,0-1.51,0-3.01.01-4.18-1.17h0c-14.15-.12-28.29-.24-42.44-.35h0c-.16,0-.32,0-.49,0-11.85-.06-23.7-.13-35.56-.19h0s0,0,0,0c-.4-.26-.8-.52-1.2-.78-.27-.17-.53-.35-.8-.52,0,0,0,0,0,0-.32.51-.64,1.02-.97,1.54-.05.08-.1.16-.15.24-.1.44,0,.85.27,1.2.33-.01.66.02.99.07.06,0,.12,0,.18.01h0c11.57,0,23.15,0,34.72,0,1.73,0,3.45,0,5.18-.01,10.2-.03,20.4-.07,30.6,0,1.76.01,3.89-.52,5.27.56.59.46,1.04,1.21,1.26,2.43,5.64-3.6,10.24,1.99,15.75,1.72,13.29-.65,26.64-.22,39.97-.21,13.64,0,13.29.03,13.77,13.12.3,8.41-.26,15.93-7.96,21.21-2.79,1.91-3.38,4.81-1.89,8.03,4.59,9.93-.63,18.62-3.63,27.57-.31.92-1.56,1.85-1.4,2.55,1.9,8.53,2.71,17.17,3.32,25.87.21,3,3.82,3.17,6.24,2.49,4.89-1.37,8.47-.61,9.9,4.74.82,3.05,4.19,2.44,5.77,4.32,0,0,0,0,0,0,2.93.03,5.87.06,8.8.09l27.33-21.22c-.19-5.5-.07-11,1.62-16.42,0,0,0,0,0,0,7.09-1.39,14.19-1.85,21.28-1.37l15.07-11.7c-.41-7.2.37-14.47.04-21.69-.17-3.85,2.06-4.49,5.23-4.46,8.73.09,17.46.09,26.19,0,.68,0,1.38.04,2.08.09l5.73-4.45c.05-11.1.1-22.2.15-33.3,9.25-3.1,18.8-1.35,28.14-1.18,7.51.14,10.44-1.69,9.64-9.56-.71-6.95-.01-14.04-.19-21.07-.14-5.42,1.33-8.13,7.64-7.66,8.49.63,17.07-.04,25.6.24,4.65.15,6.12-1.57,6.01-6.11-.27-11.01-.14-22.03-.17-33.05-10.55.07-21.1.14-31.65.21h0c0,1.43,0,2.85,0,4.26,0,0-.01,0-.02.01-.17.03-.32.03-.47.02-1.44-.04-1.71-1.48-2.41-2.42-.48.4-1.32.76-1.36,1.2-.18,1.78.76,2.64,2.77,2.43.32-.26.7-.58,1.09-.91,0,0,.02-.01.03-.02.01,0,.03-.02.04-.03,0,0,.01-.01.02-.02,0,0,0,0,0,0,.05-.04.11-.09.16-.14.05-.04.1-.08.15-.13,0,0,0,0,0,0,0,0,0,0,0,0,6.12.24,12,1.97,18.43.32,5.79-1.49,11.56,4.47,11.71,10.66.15,6.35,1.91,14.35-6.27,16.47-7.54,1.95-15.98,3.95-23.34-1.76-.39-.31-.72-.7-1.13-.98-2.99-2.02-8.34.17-9.36-5.49-1.26-6.96-.61-13.96-.44-20.92.07-3.05,1.12-.04,1.68.28,1.36.78,1.85-.12,1.86-1.15,0-1.22-.38-2.44-.59-3.66,0-9.42,0-18.84,0-28.26,0,0,0,0,0-.01,2.31-2.73.64-6.21,1.71-9.18.34.09.69.1,1.03.02,0,0,0,0,.01,0,11.19,2.14,22.38,2.1,33.57,0,.41.07.83.12,1.25.13.11.22.21.44.31.65,2.73,5.91.86,12.22,1.19,18.32.35,6.46.12,12.95.11,19.43,0,.17,0,.33,0,.5,0,.02,0,.04,0,.06.19,0,.37,0,.56,0,10.81.02,21.62-.11,32.42.16,4.46.11,6.32-1.21,6.18-5.89-.27-9-.1-18.02-.1-27.03,0-2.54.17-5.12-2.85-6.27-.57.09-1.14.16-1.71.25-11.02,1.63-22.04,1.7-33.06-.29,0,0,0,0,0,0-.03-.03-.05-.05-.08-.08-.27-.28-.55-.56-.82-.85-.22-.22-.43-.45-.65-.67,0,0,0,0,0,0h0c.03-12.06.07-24.11.1-36.17.13.01.25.02.38.04.37.03.73.07,1.1.1.15,0,.3,0,.46,0,.87-.01,1.75-.02,2.62-.03,0,0,0,0,0,0,.17,0,.34,0,.51,0,10.84-.09,21.69-.18,32.53-.27h0c.03-.5.02-.99-.03-1.48-.03-.08-.06-.17-.09-.25ZM422.41,426.76c-1.95-1.82-.85-3.79-.59-7.11,1.33,3.23,1.22,5.08.59,7.11Z"/>
    <path class="cls-50" d="M622.04,298.75c11.02,1.99,22.04,1.92,33.06.29.57-.08,1.14-.15,1.71-.25-4.38-10.89-3.95-11.99,7.47-16.94,2.62-1.13,3.26-3.69,4.86-5.55,1.02-1.18,1.64-2.74.21-4-1.4-1.22-2.88-.47-4.02.59-6.31,5.84-11.36,3.08-17.23-2.44-.05-.05-.11-.1-.16-.15.08,0,.15,0,.23-.01,4.54-.25,8.01-.43,11.46-.62-1.77-.19-3.54-.34-5.31-.47-.25-.02-.51-.04-.76-.05-8.81-.62-17.57-.58-26.34-.71-2.29-.03-3.66.54-4.41,1.72-.57.89-.8,2.11-.78,3.72.12,7.39.05,14.79.02,22.19,0,.86,0,1.72,0,2.59,0,.03,0,.07,0,.1,0,0,0,0,0,0Z"/>
    <path class="cls-70" d="M581.35,527.93c0,.99-.02,1.99-.03,2.98.58-.18,1.17-.35,1.75-.52,0,0,0,0,0,0,2.41-2.09,5.28-2.55,8.37-2.5,6.25.09,12.54-.46,18.73.15,7.47.74,9.34-2.25,9.02-9.29-.36-7.66-.08-15.29-3.19-22.52-.2-.07-.41-.13-.61-.2-1.01-.34-2.02-.62-3.04-.85-6.74-1.5-13.64-.75-20.4-.2-1.03.08-2.05.16-3.08.22-2.33.15-3.46,2.87-4.01,5.84-.27,1.49-.4,3.03-.46,4.35-.25,5.95-.09,11.93.19,17.88.04.84.1,1.54-.07,2.08,0,.02,0,.04-.01.06-.2.54-.67.89-1.7,1h0c-.4.41-.79.83-1.19,1.24-.09.1-.18.19-.28.29,0,0,0,0,0,0Z"/>
    <path class="cls-81" d="M625.85,489.1c4.23-1.45,8.73-.22,13.05-.33,13.87-.36,15.64-2.45,11.82-15.22-1.67-5.59-6.29-7.71-11.69-5.2-1.57.73-3.08,1.72-4.4,2.85-2.7,2.32-5.14,5.02-8.99,1.84-2.58-2.14-2.73-4.96-1.52-7.47,1.69-3.52,4.58-6.51,8.89-5.36,5.31,1.41,10.35-.69,15.57-.34,2.85.19,5.74-.61,5.55-3.88-.03-.56-.14-1.18-.37-1.89-8.99-.04-17.98.06-26.96-.18-4.28-.12-6.45.94-6.3,5.78.28,8.98.06,17.97.09,26.95,0,2.17-.51,4.78,3.03,4.77-.04-.41-.07-.83-.07-1.24.75-.47,1.52-.81,2.29-1.08Z"/>
    <path class="cls-70" d="M653.78,454.11c.23.71.34,1.33.37,1.89.19,3.26-2.71,4.07-5.55,3.88-5.22-.35-10.26,1.75-15.57.34-4.31-1.15-7.2,1.84-8.89,5.36-1.21,2.52-1.06,5.34,1.52,7.47,3.84,3.18,6.29.48,8.99-1.84,1.32-1.13,2.83-2.12,4.4-2.85,5.39-2.5,10.01-.39,11.69,5.2,3.82,12.77,2.05,14.86-11.82,15.22-4.32.11-8.82-1.12-13.05.33-.77.26-1.54.61-2.29,1.08,1.75,0,3.5,0,5.26,0,9.77,0,19.54,0,29.31,0,0,0,0,0,0,0,.05-12,.09-23.99.14-35.99,0-.03,0-.06,0-.09v-.08s-.01-.01-.01-.01c-1.5.04-2.99.08-4.49.12,0,0,0,0,0,0Z"/>
    <path class="cls-80" d="M199.53,604.82c-.02-.17-.03-.34-.05-.52-.32-2.87-.6-5.74-.83-8.6-1.23-15.42-1.1-30.86,0-46.4.37-5.17.82-10.35,1.39-15.55,11.16,1.24,22.61-1.59,33.82,1.58.12.04.25.06.38.1h0c3.89-3.36,4.36-7.79,4.64-12.64.43-7.44-1.26-14.99.19-22.37.28-1.41.66-2.81,1.2-4.2,0,0,0,0,0,0,0-.2,0-.4,0-.6,0-.7,0-1.4,0-2.1,0-.14,0-.27,0-.41-.49-.23-.98-.45-1.46-.67-.58-.11-1.15-.26-1.57-.72,0,0,0,0,0,0,0,0,0,0,0,0h0s0,0,0,0c-.08.05-.16.1-.24.14-.83.5-1.66,1-2.49,1.49-.01,10.49-.15,20.99.03,31.48.08,4.26-.86,6.37-5.78,6.18-10.05-.38-20.12-.22-30.19-.26-.18,0-.37,0-.55,0h0c-.35.02-.69.05-1.04.07-.15.01-.3.02-.46.03-.02,0-.04,0-.06,0h0c0,.13,0,.27,0,.4-.02,25.36-.03,50.71-.05,76.07,0,.24,0,.47,0,.71,0,0,0,0,0,0,1.03-.09,2.06-.19,3.09-.28h0c0-.58,0-1.17.01-1.75,0-.4,0-.8.01-1.2Z"/>
    <path class="cls-51" d="M578.62,530.84c-.11,0-.21,0-.32-.01h0c-.51,0-1.01,0-1.52,0-1.31,0-2.62,0-3.93,0-7.03-.01-14.06-.02-21.09-.03-1.71,0-3.41,0-5.12,0,0,0,0,0,0,0,0,0,0,0,0,0-2.5.45-3.22,2.18-3.04,4.41.9,11.08-2.05,22.34,1.55,33.29,0,0,0,0,0,0,.5-.46.99-.91,1.49-1.37.21-.6.36-1.21.53-1.82,1.92-6.98,1.31-14.06.04-21.08-1.41-7.78.32-10.48,8.04-10.17,8.05.32,16.26-1.64,24.16,1.28.12.05.25.08.37.13.41-.94.82-1.88,1.23-2.82,0,0,0,0,0-.01.09-.49.17-.98.26-1.47.01-.06.02-.12.03-.18-.89-.03-1.78-.07-2.68-.11Z"/>
    <path class="cls-50" d="M625.14,261.08c-.87.01-1.75.02-2.62.03-.15,0-.3,0-.46,0-.09.75-.08,1.39-.02,1.95.07.68.24,1.23.49,1.67,1.34,2.38,4.91,1.75,7.5,2.16,9.57,1.5,18.77-1.68,28.35-2.55-3.23-2.7-6.88-1.61-10.3-1.93-7.48-.69-15.13,1.52-22.49-1.19-.15-.05-.3-.1-.45-.16,0,0,0,0,0,0Z"/>
    <path class="cls-55" d="M584.52,525.4s0-.04.01-.06c.18-.53.11-1.24.07-2.08-.28-5.95-.44-11.93-.19-17.88.05-1.31.19-2.86.46-4.35.55-2.97,1.68-5.69,4.01-5.84,1.02-.06,2.05-.14,3.08-.22,6.77-.54,13.66-1.3,20.4.2,1.02.23,2.03.51,3.04.85.2.07.41.13.61.2.86-.35,1.56-.87,2.11-1.53.36-.44.67-.92.89-1.5h0c-10.65-.6-21.35.75-32.01-.87-1.91-.29-4.67-.59-5.64,2.33h-.01s.01,0,.01,0c0,0,0,.01,0,.02.03.12.06.23.09.35.01.05.03.11.04.16,2.76,10.3.36,20.83,1.34,31.21,1.04-.11,1.5-.46,1.7-1Z"/>
    <path class="cls-59" d="M579.76,535.68c0,8.61-.11,17.23.09,25.84.1,4.15-1.43,5.77-5.64,5.67-8.9-.2-17.8-.1-26.7-.11-.3,0-.6,0-.89,0-.5.46-.99.91-1.49,1.37,0,0,0,0,0,0,.39,0,.77,0,1.16,0,4.15.02,8.29.03,12.44.04,1.55,0,3.09.02,4.64.02,4.22.03,8.45.07,12.67.16.73.02,1.35-.04,1.91-.13,2.45-.4,3.41-1.87,3.33-5.08-.27-10.29-.21-20.59-.29-30.89,0,0,0,.01,0,.02-.41.94-.82,1.88-1.23,2.82,0,.08,0,.17,0,.25Z"/>
    <path class="cls-29" d="M551.75,530.78c7.03.01,14.06.02,21.09.03,1.31,0,2.62,0,3.93,0-.48-.81-.9-2.26-1.46-2.32-9.06-.96-18.14-.9-27.2-.03-.56.05-.99,1.5-1.48,2.31,0,0,0,0,0,0,1.71,0,3.41,0,5.12,0Z"/>
    <path class="cls-38" d="M623.56,490.18c0,.42.03.83.07,1.24,0,0,0,0,0,0,4.23.08,8.48.47,12.67.15,7.28-.56,14.74,1.78,21.84-1.41h0c-9.77,0-19.54,0-29.31,0-1.75,0-3.5,0-5.26,0Z"/>
    <path class="cls-29" d="M581.35,494.69c-.06.16-.1.32-.15.48-.16.46-.31.93-.43,1.39-1.77,6.39-1.02,12.81-.21,19.24.03.28.07.55.1.83.26,2.08.52,4.17.69,6.25v-28.19Z"/>
    <path class="cls-29" d="M581.36,494.66s-.01,0-.01,0v.03s0,0,0-.01c0,0,0-.01,0-.02Z"/>
    <path class="cls-29" d="M578.62,530.84c.89.04,1.78.07,2.68.11.01,0,.02,0,.03,0,0-.01,0-.02,0-.04,0-.99.02-1.98.03-2.98h0c-.16-.08-.3-.13-.44-.19-3.01-1.23-2.58,1.17-2.61,3.08h0c.11,0,.21,0,.32.01Z"/>
    <path class="cls-57" d="M733.72,283.57c-.83,2.71-7.23,6.49,1.41,7.4-.08-1.08.12-2.22.18-3.33v-.36c.03-1.34-.23-2.63-1.59-3.7Z"/>
    <path class="cls-24" d="M170.18,534.02c-1.58.06-2.99.25-4.22.61-3.83,1.12-5.92,3.92-5.86,9.91.4,43.32.19,86.64.18,129.96,0,2.32-.1,4.65.64,6.84.22.64.5,1.28.89,1.89,0,0,0,0,0,0,.02,0,.04,0,.06,0,9.9-.02,19.8-.03,29.69-.05.44,0,.87,0,1.31,0,.07,0,.14,0,.21,0,.13,0,.25,0,.38,0,0-.3,0-.6,0-.91-.12-49.45.55-98.91-1.5-148.34h0c-7.27,0-14.54-.21-21.79.08ZM167.83,672.55c0,1.76,0,3.52-.11,5.27-.08,1.32-.64,2.68-2.04,2.78-1.44.11-2.08-1.25-2.23-2.52-.18-1.49-.14-3.01-.14-4.52,0-42.22-.02-84.44.03-126.66,0-2.4-.81-5.07,3.53-7.2,0,7.3-.82,14.71.17,21.87,2.07,15.06-1.32,30.32,2.37,45.33.77,3.12-1.71,6.84-1.67,10.61.19,18.34.09,36.69.08,55.04Z"/>
    <path class="cls-83" d="M234.18,459.92c-.01-1.47-.03-2.94-.04-4.41,0,0,0,0,0,0-3.53,5.38-4.63,11.24-4.52,17.67.28,16.23-.03,32.46.16,48.69.05,4.51-1.42,6.24-6.03,6.1-7.86-.24-15.74-.11-23.61-.09-.61,0-1.22,0-1.83,0-.09,0-.18,0-.27,0h0c0,.32,0,.64,0,.96,0,.64,0,1.28-.01,1.91h0c.18,0,.37,0,.55,0,10.06.04,20.14-.12,30.19.26,4.92.19,5.85-1.93,5.78-6.18-.19-10.49-.04-20.99-.03-31.48,0-.41,0-.82-.01-1.24-.1-10.74-.2-21.47-.3-32.21Z"/>
    <path class="cls-49" d="M497.24,644.1c1.86.04,3.18-.27,4.09-.96,1.14-.87,1.62-2.35,1.57-4.68-.2-8.97-.09-17.94-.09-26.91,0-.23,0-.45,0-.68-.11,0-.21.02-.32.03-2.86.26-5.89,1.15-8.5.47-6.68-1.75-12.91.7-19.29,1.29-4.43.41-7.75,3.21-6.3,8.24,2.22,7.68.75,15.44,1.25,23.14.28,0,.56,0,.84,0,8.92,0,17.84-.13,26.76.06Z"/>
    <path class="cls-9" d="M386.77,754.14c-.46-9.03-.15-18.09-.16-27.14-.19.06-.38.09-.56.14-.17.05-.34.08-.51.13-.46.12-.91.25-1.37.35-3.07.68-6.19.96-9.39.93-13.19-.14-26.38-.05-39.57-.05-32.12,0-64.24,0-96.36.01h-.04c-.21,0-.41,0-.62,0-.29,0-.58,0-.87,0-.01,8.81.32,19.36.39,28.6,0,1.09.01,2.16.01,3.21,0,.19,0,.38,0,.57l1.35.03,35.95.75c34.7,0,69.4-.12,104.1.14.81,0,1.55-.02,2.21-.09,4.26-.42,5.7-2.42,5.44-7.58Z"/>
    <path class="cls-41" d="M427.28,264.55c-.01.8-.02,1.61-.03,2.41h0c.15.53.3,1.05.45,1.58h0c.43,1.14.74,2.3.95,3.45,1,5.41-.05,10.94.11,16.39.31,10.32.09,10.33,10.65,10.17-.16-.2-.29-.54-.47-.57-2.66-.38-4.57-1.13-5.93-2.13-.54-.4-1-.85-1.38-1.33-3.04-3.84-1.23-9.94-1.04-14.89.03-.9.18-1.7.4-2.44,1.48-4.81,6.7-6.41,11.14-9.17,5.02-3.12,9.54-2.37,14.28-2.47,13.3-.29,26.62-.18,39.93-.04,2.4.03,4.52-.23,6.3-1.46.6-.41,1.16-.94,1.67-1.6,0,0,0,0,0,0,0-.5,0-1,0-1.5-.14,0-.28,0-.42,0-24.28-.1-48.56-.2-72.85-.3h-.66s0,0,0,0c-.85.06-1.7.13-2.55.19-.14.01-.28.02-.42.03-.04,0-.07,0-.11,0,0,.04,0,.08,0,.12,0,.12,0,.24,0,.36-.01,1.06-.03,2.13-.04,3.19Z"/>
    <path class="cls-13" d="M427.09,271.65s0,0,0,0c-2.55,5.99-.8,12.26-1.12,18.39-.18,3.32-.08,6.47-3.12,8.65h0c.79-.02,1.58-.04,2.37-.06.41,0,.83-.02,1.24-.03.28,0,.57-.01.85-.02,0-1.1-.02-2.2-.03-3.31-.06-7.87-.13-15.75-.19-23.62Z"/>
    <path class="cls-19" d="M497.13,298.73c5.41.08,7.64-1.25,7.37-7.07-.45-9.72-.16-19.47-.17-29.21h0c-.51.66-1.07,1.19-1.67,1.6-1.77,1.23-3.9,1.49-6.3,1.46-13.31-.14-26.62-.25-39.93.04-4.74.1-9.26-.65-14.28,2.47-4.43,2.76-9.66,4.36-11.14,9.17-.23.73-.37,1.54-.4,2.44-.19,4.95-2.01,11.05,1.04,14.89.38.48.83.93,1.38,1.33,1.36,1,3.27,1.75,5.93,2.13.18.03.32.37.47.57,19.23.02,38.47-.13,57.7.17Z"/>
    <path class="cls-66" d="M498.59,300.14c-22.72-.01-45.43.07-68.15.13,0,0,0,0,0,0,.24,1.44.85,1.82,2.5,1.8,21.32-.22,42.64-.28,63.97-.42,2.55-.02,5.01.11,7.26,1.45-.21-4.06-3.35-2.96-5.58-2.97Z"/>
    <path class="cls-32" d="M350.44,522.45c0-2.47,0-4.93-.01-7.4-.01-7.17-.02-14.34-.03-21.51,0-.1,0-.2,0-.31-2.1-.18-4.2-.36-6.3-.54-34.51.14-69.02.28-103.53.42-.1,0-.2,0-.29,0,0,.14,0,.27,0,.41,0,.7,0,1.4,0,2.1,0,.2,0,.4,0,.6,32.43,0,64.86.02,97.29-.02,4.52,0,9.98.26,9.47,5.78-.74,8.04,5,16.1-.59,24.14-1.64,2.36.7,5.99,2.6,7.28,2.12,1.44.77-1.69,1.4-2.56,0-.53,0-1.06,0-1.58,0-2.27,0-4.54-.01-6.81Z"/>
    <polygon class="cls-32" points="350.4 493.18 350.4 493.18 350.4 493.18 350.4 493.18"/>
    <path class="cls-12" d="M281.01,458.52h64.67c-.8-1.18-1.66-1.48-2.53-1.48-21.11-.03-42.23-.02-63.34-.02-1.76,0-3.56-.11-4.82,1.49,0,0,0,0,0,0,2.01,0,4.02,0,6.02.01,0,0,0,0,0,0Z"/>
    <path class="cls-47" d="M281.01,458.52h0c-2.01,0-4.02,0-6.02-.01h0c2,3.07,4.01,1.56,6.02.01Z"/>
    <path class="cls-63" d="M388.16,306.2c-.55-.09-1.09-.17-1.64-.26-.16-.03-.32-.05-.48-.08.09.42.16.85.23,1.27,1.34,8.17-1.36,16.68,1.91,24.7,0-8.54-.01-17.09-.02-25.63h0Z"/>
    <path class="cls-78" d="M660.08,225.85c0,.36,0,.71,0,1.07-.02,10.61-.05,21.22-.07,31.82,0,.19,0,.39,0,.58.05-.19.09-.39.14-.58,2.66-10.74.42-21.67,1.17-32.49-.13-.17-.27-.33-.4-.5-.02-.02-.03-.04-.05-.06-.26-.32-.52-.64-.78-.97,0,0,0,0,0,0,0,0,0,0,0,0h0c0,.31,0,.62,0,.93,0,.07,0,.13,0,.2Z"/>
    <path class="cls-1" d="M383.34,460.03h-23.86c7.04,3.68,14.86-.02,23.85,2.62.16.05.31.08.47.13-.17,0-.33,0-.5.01-11.09.26-20.37,1.11-29.14-1.25.09.37.16.74.24,1.12.05.25.12.5.16.74,1.33,7.58-.85,14.79-2.05,22.04-.22,1.35-.41,2.71-.53,4.06-.02.27-.06.54-.08.82.1.02.19.04.29.07,11.47,2.84,23.1.83,34.66,1.05,3.17.06,2.75-3.02,2.76-5.2.05-7.77-.44-15.57.16-23.29.57-7.28-1.9-10.26-9.17-8.93-.08.71-.26,1.45-.28,2.18-.05,1.35.43,2.68,3.02,3.85Z"/>
    <path class="cls-32" d="M389.59,524.86c.1,4.51-1.3,6.28-5.99,6.17-8.65-.2-17.31.06-25.96.16-.39,0-.78.01-1.17.02.42,3.6,2.89,4.27,5.94,4.25,5.52-.04,11.05.19,16.55-.08,3.19-.16,5.39-.63,6.55,3.73.63,2.39,3.6,6.42,6.98,5.5,2.81-.77,2.63-4.84,3.35-7.77.99-4.03-3.06-7-2.71-9.04,1.17-6.79-1.26-13.31-.2-20,.72-4.54,1.74-9.73-3.3-13.06h0c0,.85-.01,1.71-.02,2.56-.06,9.19-.22,18.39-.02,27.58Z"/>
    <path class="cls-1" d="M359.48,460.03c-.25-.6-.62-1.14-1.03-1.67-.56-.73-1.16-1.45-1.56-2.27-.3-.61-.49-1.27-.43-2.06-1.01,0-2.02,0-3.03.01,0,0,0,0,0,0-.17.44-.31.83-.41,1.2-1.52,5.3,3.49,4.01,6.46,4.78Z"/>
    <path class="cls-48" d="M200.03,533.76c-.57,5.2-1.02,10.38-1.39,15.55-1.1,15.54-1.23,30.98,0,46.4.23,2.87.51,5.74.83,8.6.02.17.03.34.05.52,9.33-2.82,18.56-5.69,27.97.23,1.61,1.01,4.29-1,3.27-3.49-2.98-7.31.13-14.82-1.12-22.11-1-5.82,1.86-13.48-7.1-15.81-.63-.16-1.15-.96-1.6-1.56-1.31-1.75-3.59-3.6-1.88-5.87,1.72-2.27,3.4-5.63,6.88-5.03,2.46.43,6.08.61,6.48,4.15.79,6.94,5.4,7.49,10.87,7.28,4.52-.17,9.09-.44,13.56.08,4.44.52,7.64-1.77,11.07-3.63,3.71-2,2.72-5.75,2.3-8.8-.59-4.27-3.8-1.23-5.84-1.69-6.46-1.44-12.97-.79-19.45-1.17-3.77-.22-5.98-2.49-6.13-6.32-.12-3.14-1.01-5.43-4.59-5.68,0,0,0,0,0,0-.12-.04-.25-.06-.38-.1-11.21-3.17-22.66-.34-33.82-1.58Z"/>
    <path class="cls-82" d="M234.27,607.88s0-.05,0-.08c-.03,0-.05,0-.08,0,0,0,.07.08.07.08Z"/>
    <path class="cls-82" d="M273.46,576.49c.15-4.76-1.26-6.77-6.36-6.57-8.76.35-17.55.34-26.32,0-4.92-.19-6.63,1.4-6.5,6.38.27,10.42.03,20.85-.01,31.28,0,.05,0,.11,0,.16,0,.02,0,.03,0,.05h.04c.06,0,.13,0,.19,0,10.93.03,21.86-.09,32.78.16,4.44.1,6.35-1.18,6.19-5.92-.29-8.51-.28-17.04-.01-25.55Z"/>
    <path class="cls-48" d="M230.45,563.28c-.22.43.2,1.18.47,2.39.79-.99,1.34-1.45,1.56-2.03.13-.33-.26-.87-.41-1.31-.56.31-1.38.48-1.62.95Z"/>
    <path class="cls-79" d="M495.39,510.24c-2.78.17-11.51,7.9-11.86,10.26-.17,1.11-.03,2.62.62,3.42,1.15,1.43,2.77.79,3.89-.28,3.04-2.9,5.99-5.89,8.94-8.89.96-.98,1.25-2.24.34-3.32-.57-.67-1.56-.98-1.92-1.2Z"/>
    <path class="cls-72" d="M574.22,567.19c4.2.1,5.73-1.52,5.64-5.67-.2-8.61-.08-17.22-.09-25.84,0-.08,0-.17,0-.25-.12-.05-.25-.08-.37-.13-7.9-2.92-16.11-.95-24.16-1.28-7.72-.31-9.45,2.39-8.04,10.17,1.27,7.02,1.88,14.1-.04,21.08-.17.61-.32,1.21-.53,1.82.3,0,.6,0,.89,0,8.9,0,17.8-.1,26.7.11Z"/>
    <path class="cls-8" d="M169.41,606.9c-3.69-15.01-.3-30.27-2.37-45.33-.99-7.16-.17-14.57-.17-21.87-4.34,2.13-3.53,4.8-3.53,7.2-.05,42.22-.04,84.44-.03,126.66,0,1.51-.03,3.03.14,4.52.15,1.28.79,2.63,2.23,2.52,1.39-.1,1.95-1.47,2.04-2.78.11-1.75.11-3.52.11-5.27,0-18.35.11-36.69-.08-55.04-.04-3.77,2.43-7.49,1.67-10.61Z"/>
  </g>
</svg>