<?xml version="1.0" encoding="UTF-8"?>
<svg id="Layer_1" data-name="Layer 1" xmlns="http://www.w3.org/2000/svg" viewBox="0 0 827.44 360">
  <defs>
    <style>
      .cls-1 {
        fill: #fff;
        stroke-width: 0px;
      }
    </style>
  </defs>
  <g>
    <path class="cls-1" d="M0,302.17V58.28h34.05v243.89H0ZM20.13,302.17v-31.7h66.09c18.12,0,30.95-3.46,38.5-10.4,7.55-6.93,11.32-16.04,11.32-27.34v-.5c0-12.08-3.22-21.72-9.64-28.93-6.43-7.21-17.03-10.82-31.79-10.82H20.13v-30.86h74.47c12.64,0,22.17-2.99,28.6-8.97,6.43-5.98,9.64-14.73,9.64-26.25,0-12.19-3.58-21.3-10.74-27.34-7.16-6.04-17.89-9.06-32.21-9.06H20.13v-31.7h75.98c24.04,0,41.93,5.98,53.68,17.95,11.74,11.97,17.61,28.01,17.61,48.14,0,12.19-3.58,23.34-10.74,33.46-7.16,10.12-18.4,16.58-33.72,19.37,15.1,2.24,26.81,8.89,35.14,19.96,8.33,11.07,12.5,23.76,12.5,38.08v.5c0,19.91-6.43,35.95-19.29,48.14-12.86,12.19-30.3,18.28-52.33,18.28H20.13Z"/>
    <path class="cls-1" d="M221.75,302.17V58.11h34.22v244.06h-34.22ZM236.68,199.01v-32.54h83.2c9.95,0,17.95-3.46,23.99-10.4,6.04-6.93,9.06-16.1,9.06-27.51s-3.02-20.57-9.06-27.51c-6.04-6.93-14.03-10.4-23.99-10.4h-83.2v-32.54h81.86c14.2,0,26.61,2.94,37.24,8.81,10.62,5.87,18.87,14.06,24.74,24.57,5.87,10.51,8.81,22.87,8.81,37.07s-2.96,26.42-8.89,36.99c-5.93,10.57-14.17,18.79-24.74,24.66-10.57,5.87-22.95,8.81-37.15,8.81h-81.86ZM358.96,302.17l-55.86-110.71,34.05-7.72,62.4,118.42h-40.59Z"/>
    <path class="cls-1" d="M519.65,304.68c-17.22,0-32.26-3.72-45.12-11.16-12.86-7.44-22.84-17.92-29.94-31.45-7.1-13.53-10.65-29.3-10.65-47.3v-69.11c0-18.12,3.55-33.91,10.65-47.39,7.1-13.47,17.08-23.93,29.94-31.37,12.86-7.44,27.9-11.15,45.12-11.15s32.26,3.72,45.12,11.15c12.86,7.44,22.84,17.89,29.94,31.37,7.1,13.48,10.65,29.27,10.65,47.39v69.11c0,18.01-3.55,33.77-10.65,47.3-7.1,13.53-17.08,24.01-29.94,31.45-12.86,7.44-27.9,11.16-45.12,11.16ZM519.65,270.97c15.32,0,27.59-5.03,36.82-15.1,9.22-10.06,13.84-23.37,13.84-39.92v-71.46c0-16.66-4.61-30-13.84-40.01-9.23-10.01-21.5-15.01-36.82-15.01s-27.45,5.01-36.73,15.01c-9.28,10.01-13.92,23.34-13.92,40.01v71.46c0,16.55,4.64,29.86,13.92,39.92,9.28,10.06,21.52,15.1,36.73,15.1Z"/>
    <path class="cls-1" d="M657.36,302.17V58.28h34.22v243.89h-34.22ZM680.51,302.17v-32.54h55.19c18,0,31.95-4.67,41.85-14.01,9.9-9.34,14.84-22.5,14.84-39.5v-71.79c0-17-4.95-30.16-14.84-39.5-9.9-9.34-23.85-14.01-41.85-14.01h-55.19v-32.54h54.18c29.52,0,52.36,7.63,68.52,22.9,16.16,15.26,24.24,36.76,24.24,64.49v69.11c0,18.45-3.64,34.19-10.9,47.22-7.27,13.03-17.84,22.98-31.7,29.86-13.87,6.88-30.64,10.32-50.32,10.32h-54.01Z"/>
  </g>
  <rect class="cls-1" x="177.94" y="-177.5" width="34" height="389" transform="translate(211.94 -177.94) rotate(90)"/>
  <rect class="cls-1" x="725.44" y="-68" width="34" height="170" transform="translate(759.44 -725.44) rotate(90)"/>
  <rect class="cls-1" x="448.94" y="-15.5" width="34" height="65" transform="translate(482.94 -448.94) rotate(90)"/>
  <rect class="cls-1" x="396.94" y="-70.5" width="34" height="827" transform="translate(756.94 -70.94) rotate(90)"/>
  <rect class="cls-1" x="556.94" y="-15.5" width="34" height="65" transform="translate(590.94 -556.94) rotate(90)"/>
</svg>