<?xml version="1.0" encoding="UTF-8"?>
<svg id="Layer_1" data-name="Layer 1" xmlns="http://www.w3.org/2000/svg" viewBox="0 0 915 915">
  <defs>
    <style>
      .cls-1 {
        fill: #c47a53;
      }

      .cls-1, .cls-2, .cls-3, .cls-4 {
        stroke-width: 0px;
      }

      .cls-2 {
        fill: #ffeacc;
      }

      .cls-3 {
        fill: #ecba87;
      }

      .cls-4 {
        fill: #914546;
      }
    </style>
  </defs>
  <circle class="cls-2" cx="457.5" cy="457.5" r="457.5"/>
  <g>
    <polygon class="cls-2" points="583.6 601.15 583.6 601.27 583.48 601.15 583.6 601.15"/>
    <path class="cls-1" d="M356.92,518.83c-.06-12.24-.11-24.47-.17-36.71,22.08-.04,44.16-.25,66.24-.01,5.32.06,7.18-1.4,6.79-6.83-.48-6.61-.14-13.28-.13-19.93,0-6.14,2.06-9.88,9.23-9.39,6.62.46,13.31-.22,19.93.15,5.79.33,7.96-1.59,7.88-7.63-.31-22.07-.15-44.15-.17-66.23,9.65-.03,19.3-.25,28.95-.01,5.24.13,7.07-1.9,6.96-7.06-.22-9.64.06-19.28.13-28.93,24.15.07,48.3.14,72.45.21.03,9.2.06,18.41.1,27.61.04,9.44,1.35,10.47,10.9,8.81,6.55-1.14,13.06-.78,19.67-.05,5.04.55,6.72,2.32,6.5,7.47-.41,9.66-.06,19.35-.02,29.02,0,0,.12-.14.12-.14-21.8-.02-43.6-.05-65.39-.06-3.56,0-7.53-.55-7.54,4.92-.01,9,.06,18-.08,27-.04,2.29,1.27,3.39,2.71,4.61-.88.14-1.77.29-2.65.43-8.78,0-17.55-.01-26.33-.02-9.39,0-9.27,0-9.44,9.09-.17,8.97.91,18-1.09,26.9,0,0,.16-.13.15-.13-9.92-.04-19.84.16-29.75-.22-5.13-.2-6.49,1.77-6.35,6.57.29,10.14.11,20.3.12,30.44,0,0-.04.02-.04.02-10.16.01-20.33.22-30.48-.06-4.77-.13-6.8,1.14-6.6,6.3.4,9.91.22,19.84.28,29.76,0,0,.07-.2.07-.21-12.44-.03-24.88-.06-37.32-.09M393.73,549.15c.11,19.42,0,52.42.27,71.84.08,5.79-2.46,7.52-7.64,7.44-7.82-.12-15.64.2-23.45-.11-4.75-.19-6.17,1.63-6.04,6.18.28,9.94.15,19.89.18,29.84,0,0,.12-.14.12-.14-10.41-.02-20.83.15-31.23-.14-4.67-.13-6.19,1.48-6.05,6.12.3,10.4.12,20.81.13,31.22,0,0,.18-.1.18-.1-24.36-.04-48.72-.09-73.08-.13,0,0,.08.09.08.09.04-12.41.08-24.82.12-37.23,10.44.05,20.87,0,31.31.19,3.76.07,5.71-.82,5.58-5.11-.33-10.41-.31-20.84-.43-31.26,2.58-.22,5.17-.63,7.75-.64,19.67-.06,39.34-.18,59,.04,4.97.06,6.69-1.54,6.46-6.51-.34-7.56-.27-15.16-.03-22.73.16-4.92-1.76-6.74-6.68-6.65-10.18.19-20.37-.04-30.56-.1.14-24.19.29-48.39.43-72.58,12.28.03,24.55.06,36.83.09M538.09,391.11v-2.13q0-15.63-15.7-15.63c-18.82,0-18.97,0-18.72,18.9.07,5.3-2.81,11.99.6,15.52,3.54,3.67,10.39,1.19,15.77,1.24,18.04.17,18.04.06,18.05-17.9Z"/>
    <path class="cls-4" d="M600.09,315.06c.53.48,1.03.98,1.55,1.47,1.65,1.52,3.44,1.68,5.05.09,5.07-4.99,5.34-1.52,5.33,2.89-.03,15.64.11,31.27-.07,46.91-.05,4.24,1.23,5.96,5.66,5.82,8.29-.27,16.59-.22,24.88-.02,4.05.1,5.42-1.52,5.33-5.44-.18-7.81.2-15.65-.14-23.45-.22-5.06,1.05-7.28,6.65-7.03,10.17.46,20.38.19,30.57.23-.03,10.17-.34,20.36.02,30.52.17,4.91-1.62,5.98-6.1,5.81-8.27-.32-16.57.07-24.85-.2-4.38-.14-5.78,1.46-5.63,5.77.28,8.27-.11,16.57.16,24.84.14,4.41-.86,6.26-5.83,6.06-10.16-.4-20.35-.05-30.53-.02-.04-9.68-.39-19.37.02-29.02.22-5.15-1.46-6.92-6.5-7.47-6.61-.73-13.12-1.09-19.67.05-9.55,1.66-10.86.63-10.9-8.81-.04-9.2-.06-18.41-.1-27.61.24-5.58.48-11.15.73-16.73"/>
    <path class="cls-4" d="M642.75,252.28c.98-1.24,1.75-2.27.36-3.6-1.02-.97-1.94-1.89-3.68-1.23-5.39,2.05-9.66,10.77-7.66,15.94-5.62.06-11.84-1.37-16.73.55-6.95,2.72-1.17,10.4-3.47,15.4-5.98-.47-8.59,4.43-12,7.8"/>
    <path class="cls-4" d="M664.82,251.83c-2.92-2.19-2.12-3.92.13-6.23,3.95-4.05,9.37-7.17,11.28-12.59,1.79-5.09,4.39-5.23,8.4-3.61.06,8.52.78,17.11-.03,25.55-.74,7.74,2.43,9.12,9.1,8.68,7.31-.48,14.69.07,22.02-.19,4.07-.14,5.9.7,5.85,5.38-.26,20.6-.27,41.21-.04,61.81.05,4.86-1.69,5.92-6.18,5.82-10.18-.23-20.36.09-30.55.18-.02-21.52-.34-43.04.1-64.55.15-7.07-2.19-8.86-8.85-8.52-6.77.34-13.68,1.07-20.42-1.02-2.32-.72-4.68.11-6.73,1.5-.39-.11-.77-.25-1.13-.43"/>
    <path class="cls-4" d="M574.83,325.27c-.14-13.26.64-41.36.4-54.61-.04-2.45,1.07-5.28-1.56-7.22-.53.02-1.07.04-1.6.07-22.27-.08-44.53-.15-66.8-.23-.89-.71-1.78-1.42-2.66-2.13,0-8.71,0-17.42,0-26.13.6-6.25,4.23-7.17,10.01-7.14,43.83.27,87.66.15,131.5.08,2.52,0,5.23.82,7.56-.96,1.14,0,30.39,1.3,31.53,1.3,2.89,1.78,1.63,88.16,0,89.84"/>
    <path class="cls-4" d="M587.95,312.86c-1.51.99-2.56,4.49-4.89,2.04"/>
    <path class="cls-4" d="M319.73,591.25c10.19.06,20.38.29,30.56.1,4.91-.09,6.83,1.74,6.68,6.65-.24,7.57-.32,15.17.03,22.73.23,4.97-1.49,6.57-6.46,6.51-19.66-.22-39.33-.1-59-.04-2.59,0-5.17.42-7.75.64-10.82-1.32-21.63.76-32.44.2-3.71-.19-4.17,1.94-4.14,4.89.1,10.36.1,20.73.13,31.09-.04,12.41-.08,24.82-.12,37.23-10.19-.11-20.38-.41-30.57-.23-4.33.08-5.7-1.27-5.69-5.63.12-57.14.11-114.28.04-171.41,0-3.68.66-5.58,5.02-5.42,10.42.36,20.86.23,31.29.3,0,0-.11-.11-.11-.11-.02,22.26.06,44.52-.16,66.78-.04,4.52,1.12,6.18,5.91,6.11,22.26-.32,44.53-.29,66.8-.39Z"/>
    <path class="cls-4" d="M356.99,518.76c-12.28-.03-24.55-.06-36.83-.09-24.33.03-48.65.06-72.98.08,0,0,.11.11.11.11,0-46.45.13-92.89-.12-139.34-.03-5.81,1.7-7.28,7.17-7.01,9.93.48,19.89.61,29.8-.56,0,0,.1.07.1.07-.12,24.27-.25,48.54-.37,72.81-1.96,11.21-.54,22.51-.79,33.77-.08,3.5,2.77,3.2,5.12,3.2,10.62-.04,21.24-.11,31.86-.18,12.23.17,24.47.34,36.7.51.06,12.24.11,24.47.17,36.71l.07-.07Z"/>
    <path class="cls-4" d="M502.55,336.25c-.07,9.64-.35,19.29-.13,28.93.12,5.16-1.72,7.19-6.96,7.06-9.64-.24-19.3-.02-28.95.01-.09-11.82-.19-23.64-.29-35.45.12-10.9.14-21.79.4-32.69.09-3.94-1.83-4.76-5.25-4.7-10.66.2-21.33.23-32,.32-24.15-.12-48.31-.25-72.46-.37,0,0,.11.1.11.1-.08-10.63-.18-21.26-.23-31.88,0-1.58-.43-3.42,1.7-4.16,2.59.13,5.19.37,7.78.37,45.34.04,90.67.05,136.01.06l-.02-.03c.09,24.14.18,48.29.28,72.43Z"/>
    <path class="cls-4" d="M417.97,552c12.44.03-.54-.36,11.9-.33-.08,22.31-.35,44.62-.1,66.93.06,5.43-1.49,6.83-6.76,6.67-9.95-.3-19.92.18-29.87.34-.06.56-.12,1.13-.18,1.69,0,.79-.01,1.58-.02,2.38.01.63.03,1.27.04,1.9.04,8.22-.1,16.45.2,24.66.14,3.94-1.01,5.37-5.11,5.27-10.33-.24-20.68-.05-31.02-.04-.03-9.95.1-19.9-.18-29.84-.13-4.55,1.29-6.37,6.04-6.18,7.81.31,15.63,0,23.45.11,5.18.08,7.72-1.65,7.64-7.44-.27-19.42-.16-46.71-.27-66.13"/>
    <path class="cls-4" d="M541.97,445.64c-1.44-1.22-2.75-2.32-2.71-4.61.14-9,.07-18,.08-27,0-5.46,3.98-4.92,7.54-4.92,21.8.01,43.59.04,65.39.06-.2,11.91-.41,23.82-.61,35.72-.47,0-.74.23-.81.68-22.96.02-45.92.04-68.88.06Z"/>
    <path class="cls-4" d="M247.12,701.16c24.36.04,48.72.09,73.08.13,0,10.18-.12,20.36.09,30.53.08,3.8-.78,5.43-5.02,5.39-21.07-.19-42.14-.21-63.21,0-4.46.05-4.89-1.92-4.84-5.53.13-10.17-.04-20.35-.1-30.52Z"/>
    <path class="cls-4" d="M319.98,336.52c.06-10.42.31-20.85.1-31.26-.09-4.36,1.3-5.73,5.68-5.64,10.42.22,20.85-.07,31.27-.15,0,0-.11-.1-.11-.1-.04,10.35-.28,20.7-.05,31.05.1,4.54-1.2,6.18-5.95,6.03-10.34-.32-20.71-.06-31.06-.03l.12.11Z"/>
    <path class="cls-4" d="M320.02,701.39c-.01-10.41.17-20.82-.13-31.22-.13-4.65,1.38-6.25,6.05-6.12,10.4.29,20.82.12,31.23.14-.11,10.42-.43,20.85-.23,31.27.08,4.41-1.3,5.65-5.66,5.57-10.42-.18-20.84.21-31.26.36Z"/>
    <path class="cls-4" d="M466.64,518.72c-.01-10.15.17-20.3-.12-30.44-.14-4.81,1.23-6.77,6.35-6.57,9.9.38,19.83.18,29.75.22-.04,10.15-.33,20.31-.03,30.45.15,4.82-1.07,6.62-6.2,6.42-9.9-.38-19.83-.08-29.75-.06Z"/>
    <path class="cls-4" d="M429.8,554.74c-.06-9.92.12-19.85-.28-29.76-.21-5.15,1.82-6.43,6.6-6.3,10.15.28,20.32.07,30.48.06-.11,9.18-.64,18.38-.2,27.53.31,6.48-1.15,9.3-8.34,8.78-9.38-.69-18.84-.26-28.26-.31Z"/>
    <path class="cls-4" d="M502.46,482.05c2-8.9.92-17.93,1.09-26.9.17-9.09.04-9.1,9.44-9.09,8.78,0,17.55.01,26.33.02-.07,10.14-.34,20.28-.11,30.42.1,4.36-1.29,5.69-5.61,5.58-10.37-.25-20.76-.04-31.14-.02Z"/>
    <path class="cls-4" d="M284.14,371.95c-.09-10.36-.05-20.73-.35-31.08-.12-3.96,1.64-4.69,5.08-4.62,10.37.22,20.75.2,31.12.28,0,0-.12-.11-.12-.11.06,10.35.02,20.7.24,31.04.08,3.61-1.1,5.07-4.84,4.97-10.34-.27-20.69-.29-31.03-.41l-.1-.07Z"/>
    <path class="cls-1" d="M502.29,263.84c.14-.48.1-.94-.11-1.38.03-.48.17-.92.43-1.32.89.71,1.78,1.42,2.66,2.13-1,.18-2,.36-3,.54l.02.03Z"/>
    <path class="cls-1" d="M392.95,630.16c.06-.56.12-1.13.18-1.69-.06.57-.12,1.13-.18,1.69Z"/>
    <path class="cls-1" d="M392.98,634.44c-.01-.63-.03-1.27-.04-1.9.12.43.29.86.35,1.29.02.19-.2.4-.31.61Z"/>
    <path class="cls-1" d="M610.85,445.59c.06-.45.33-.68.81-.68.12.69-.06,1.02-.81.68Z"/>
    <path class="cls-3" d="M284.24,372.01c10.34.12,20.69.14,31.03.41,3.73.1,4.91-1.36,4.84-4.97-.22-10.35-.18-20.7-.24-31.04,10.35-.03,20.72-.29,31.06.03,4.75.15,6.05-1.49,5.95-6.03-.24-10.34,0-20.7.05-31.05,24.15.12,48.31.25,72.46.37.08,10.34.31,20.69.16,31.04-.06,4.23,1.27,5.8,5.65,5.74,10.34-.15,20.69.16,31.04.29.1,11.82.19,23.63.29,35.45.02,22.08-.14,44.16.17,66.23.08,6.05-2.09,7.96-7.88,7.63-6.63-.37-13.32.3-19.93-.15-7.17-.49-9.23,3.25-9.23,9.39,0,6.65-.34,13.32.13,19.93.39,5.42-1.46,6.88-6.79,6.83-22.08-.23-44.16-.03-66.24.01-12.23-.17-24.47-.34-36.7-.51-.02-10.39.02-20.78-.1-31.17-.03-2.26,1.17-5.32-3.63-4.85-10.81,1.04-21.66.71-32.45-.76.12-24.27.25-48.54.37-72.81Z"/>
    <path class="cls-3" d="M502.27,263.81c1-.18,2-.36,3-.54,22.26.08,44.53.15,66.8.23.53-.02,1.07-.04,1.6-.07,2.63,1.94,1.51,4.78,1.56,7.22.24,13.25.33,26.51.47,39.77-.74,3.1-.78,6.2.02,9.29-.24,5.58-.48,11.15-.73,16.73-24.15-.07-48.3-.14-72.45-.2-.09-24.15-.18-48.29-.28-72.43Z"/>
    <path class="cls-3" d="M247.18,518.76c24.33-.03,48.65-.06,72.98-.08-.14,24.19-.29,48.39-.43,72.58-22.27.1-44.53.07-66.8.39-4.79.07-5.95-1.59-5.91-6.11.22-22.26.14-44.52.16-66.78Z"/>
    <path class="cls-3" d="M247.32,664.02c-.03-10.36-.03-20.73-.13-31.09-.03-2.96.44-5.08,4.14-4.89,10.82.56,21.62-1.51,32.44-.2.12,10.43.1,20.85.43,31.27.13,4.29-1.82,5.18-5.58,5.11-10.43-.2-20.87-.15-31.31-.19Z"/>
    <path class="cls-4" d="M538.09,391.11c0,17.96,0,18.07-18.05,17.9-5.38-.05-12.23,2.42-15.77-1.24-3.41-3.53-.53-10.23-.6-15.52-.24-18.89-.09-18.89,18.72-18.9q15.7,0,15.7,15.63c0,.71,0,1.42,0,2.13Z"/>
    <path class="cls-1" d="M611.4,292.13c1.05,3.8-1.01,10.08,6.69,8.66,8.45-1.55,16.99-1.33,25.51-1.27,3.05.02,4.16-1.36,4.23-4.31.28-10.4.7-20.79,1.07-31.19,2.05-1.39,4.41-2.22,6.73-1.5,6.75,2.1,13.65,1.36,20.42,1.02,6.65-.33,8.99,1.46,8.85,8.52-.44,21.51-.12,43.03-.1,64.55,0,0,.09-.09.09-.09-10.19-.04-20.39.22-30.56-.23-5.6-.25-6.88,1.96-6.65,7.03.34,7.8-.04,15.64.14,23.45.09,3.91-1.28,5.53-5.33,5.44-8.29-.2-16.6-.24-24.88.02-4.43.14-5.71-1.58-5.66-5.82.17-15.63.03-31.27.07-46.91M611.56,279.34c.51,2.5.54,4.98-.17,7.45"/>
    <path class="cls-3" d="M611.39,286.79c.71-2.47.69-4.95.17-7.45,2.3-5-3.48-12.68,3.47-15.4,4.9-1.92,11.11-.49,16.73-.55,5.34.07,10.67.14,16.01.2.36.18.74.32,1.13.43-.37,10.4-.79,20.79-1.07,31.19-.08,2.95-1.18,4.33-4.23,4.31-8.52-.06-17.06-.28-25.51,1.27-7.71,1.42-5.64-4.86-6.69-8.66,0-1.78,0-3.56-.01-5.34Z"/>
    <path class="cls-1" d="M573.67,263.44c-.53.02-1.07.05-1.6.07.53-.02,1.07-.05,1.6-.07Z"/>
    <path class="cls-1" d="M283.87,444.82c10.79,1.47,21.64,1.8,32.45.76,4.8-.46,3.6,2.59,3.63,4.85.12,10.39.08,20.78.1,31.17-10.62.06-21.24.14-31.86.18-2.34,0-5.2.3-5.12-3.2.25-11.26-1.17-22.55.79-33.77Z"/>
    <path class="cls-1" d="M466.23,336.8c-10.35-.12-20.69-.43-31.04-.29-4.37.06-5.71-1.51-5.65-5.74.15-10.34-.08-20.69-.16-31.04,10.67-.09,21.33-.12,32-.32,3.42-.07,5.34.76,5.25,4.7-.26,10.89-.29,21.79-.4,32.69Z"/>
  </g>
</svg>